<svg viewBox="0 0 330 200" xmlns="http://www.w3.org/2000/svg"><g><g><g><g><g><line x1="48.875" y1="177" x2="43.875" y2="177" style="visibility: inherit;" fill="rgb(0, 0, 0)" stroke="rgb(204, 204, 204)" stroke-width="1px"></line><line x1="48.875" y1="154.87499999999997" x2="43.875" y2="154.87499999999997" style="visibility: inherit;" fill="rgb(0, 0, 0)" stroke="rgb(204, 204, 204)" stroke-width="1px"></line><line x1="48.875" y1="132.74999999999994" x2="43.875" y2="132.74999999999994" style="visibility: inherit;" fill="rgb(0, 0, 0)" stroke="rgb(204, 204, 204)" stroke-width="1px"></line><line x1="48.875" y1="110.62499999999991" x2="43.875" y2="110.62499999999991" style="visibility: inherit;" fill="rgb(0, 0, 0)" stroke="rgb(204, 204, 204)" stroke-width="1px"></line><line x1="48.875" y1="88.49999999999989" x2="43.875" y2="88.49999999999989" style="visibility: inherit;" fill="rgb(0, 0, 0)" stroke="rgb(204, 204, 204)" stroke-width="1px"></line><line x1="48.875" y1="66.37499999999984" x2="43.875" y2="66.37499999999984" style="visibility: inherit;" fill="rgb(0, 0, 0)" stroke="rgb(204, 204, 204)" stroke-width="1px"></line><line x1="48.875" y1="44.24999999999983" x2="43.875" y2="44.24999999999983" style="visibility: inherit;" fill="rgb(0, 0, 0)" stroke="rgb(204, 204, 204)" stroke-width="1px"></line><line x1="48.875" y1="22.12500000000003" x2="43.875" y2="22.12500000000003" style="visibility: inherit;" fill="rgb(0, 0, 0)" stroke="rgb(204, 204, 204)" stroke-width="1px"></line><line x1="48.875" y1="0" x2="43.875" y2="0" style="visibility: inherit;" fill="rgb(0, 0, 0)" stroke="rgb(204, 204, 204)" stroke-width="1px"></line></g><g transform="translate(38.875, 0)"><text x="0" y="177" dx="0em" dy="0.3em" style="text-anchor: end; visibility: hidden; font-family: &quot;Helvetica Neue&quot;, sans-serif; font-size: 12px; font-weight: 200;" fill="rgb(50, 49, 63)" stroke="none" stroke-width="1px">0.87</text><text x="0" y="154.87499999999997" dx="0em" dy="0.3em" style="text-anchor: end; visibility: inherit; font-family: &quot;Helvetica Neue&quot;, sans-serif; font-size: 12px; font-weight: 200;" fill="rgb(50, 49, 63)" stroke="none" stroke-width="1px">0.88</text><text x="0" y="132.74999999999994" dx="0em" dy="0.3em" style="text-anchor: end; visibility: hidden; font-family: &quot;Helvetica Neue&quot;, sans-serif; font-size: 12px; font-weight: 200;" fill="rgb(50, 49, 63)" stroke="none" stroke-width="1px">0.89</text><text x="0" y="110.62499999999991" dx="0em" dy="0.3em" style="text-anchor: end; visibility: inherit; font-family: &quot;Helvetica Neue&quot;, sans-serif; font-size: 12px; font-weight: 200;" fill="rgb(50, 49, 63)" stroke="none" stroke-width="1px">0.9</text><text x="0" y="88.49999999999989" dx="0em" dy="0.3em" style="text-anchor: end; visibility: hidden; font-family: &quot;Helvetica Neue&quot;, sans-serif; font-size: 12px; font-weight: 200;" fill="rgb(50, 49, 63)" stroke="none" stroke-width="1px">0.91</text><text x="0" y="66.37499999999984" dx="0em" dy="0.3em" style="text-anchor: end; visibility: inherit; font-family: &quot;Helvetica Neue&quot;, sans-serif; font-size: 12px; font-weight: 200;" fill="rgb(50, 49, 63)" stroke="none" stroke-width="1px">0.92</text><text x="0" y="44.24999999999983" dx="0em" dy="0.3em" style="text-anchor: end; visibility: hidden; font-family: &quot;Helvetica Neue&quot;, sans-serif; font-size: 12px; font-weight: 200;" fill="rgb(50, 49, 63)" stroke="none" stroke-width="1px">0.93</text><text x="0" y="22.12500000000003" dx="0em" dy="0.3em" style="text-anchor: end; visibility: inherit; font-family: &quot;Helvetica Neue&quot;, sans-serif; font-size: 12px; font-weight: 200;" fill="rgb(50, 49, 63)" stroke="none" stroke-width="1px">0.94</text><text x="0" y="0" dx="0em" dy="0.3em" style="text-anchor: end; visibility: hidden; font-family: &quot;Helvetica Neue&quot;, sans-serif; font-size: 12px; font-weight: 200;" fill="rgb(50, 49, 63)" stroke="none" stroke-width="1px">0.95</text></g><line x1="48.875" y1="0" x2="48.875" y2="177" fill="rgb(0, 0, 0)" stroke="rgb(204, 204, 204)" stroke-width="1px"></line></g></g><g transform="translate(48, 0)" clip-path="url(#clip_0)"><clipPath id="clip_0"><rect width="281" height="177"></rect></clipPath><g><g><g><line x1="0" y1="0" x2="0" y2="177" fill="rgb(0, 0, 0)" stroke="rgb(60, 60, 60)" stroke-width="1px" opacity="0.25"></line><line x1="35.140625" y1="0" x2="35.140625" y2="177" fill="rgb(0, 0, 0)" stroke="rgb(60, 60, 60)" stroke-width="1px" opacity="0.25"></line><line x1="70.28125" y1="0" x2="70.28125" y2="177" fill="rgb(0, 0, 0)" stroke="rgb(60, 60, 60)" stroke-width="1px" opacity="0.25"></line><line x1="105.421875" y1="0" x2="105.421875" y2="177" fill="rgb(0, 0, 0)" stroke="rgb(60, 60, 60)" stroke-width="1px" opacity="0.25"></line><line x1="140.5625" y1="0" x2="140.5625" y2="177" fill="rgb(0, 0, 0)" stroke="rgb(60, 60, 60)" stroke-width="1px" opacity="0.25"></line><line x1="175.703125" y1="0" x2="175.703125" y2="177" fill="rgb(0, 0, 0)" stroke="rgb(60, 60, 60)" stroke-width="1px" opacity="0.25"></line><line x1="210.84375" y1="0" x2="210.84375" y2="177" fill="rgb(0, 0, 0)" stroke="rgb(60, 60, 60)" stroke-width="1px" opacity="0.25"></line><line x1="245.984375" y1="0" x2="245.984375" y2="177" fill="rgb(0, 0, 0)" stroke="rgb(60, 60, 60)" stroke-width="1px" opacity="0.25"></line><line x1="281.125" y1="0" x2="281.125" y2="177" fill="rgb(0, 0, 0)" stroke="rgb(60, 60, 60)" stroke-width="1px" opacity="0.25"></line></g><g><line x1="0" y1="177" x2="281.125" y2="177" fill="rgb(0, 0, 0)" stroke="rgb(60, 60, 60)" stroke-width="1px" opacity="0.25"></line><line x1="0" y1="154.87499999999997" x2="281.125" y2="154.87499999999997" fill="rgb(0, 0, 0)" stroke="rgb(60, 60, 60)" stroke-width="1px" opacity="0.25"></line><line x1="0" y1="132.74999999999994" x2="281.125" y2="132.74999999999994" fill="rgb(0, 0, 0)" stroke="rgb(60, 60, 60)" stroke-width="1px" opacity="0.25"></line><line x1="0" y1="110.62499999999991" x2="281.125" y2="110.62499999999991" fill="rgb(0, 0, 0)" stroke="rgb(60, 60, 60)" stroke-width="1px" opacity="0.25"></line><line x1="0" y1="88.49999999999989" x2="281.125" y2="88.49999999999989" fill="rgb(0, 0, 0)" stroke="rgb(60, 60, 60)" stroke-width="1px" opacity="0.25"></line><line x1="0" y1="66.37499999999984" x2="281.125" y2="66.37499999999984" fill="rgb(0, 0, 0)" stroke="rgb(60, 60, 60)" stroke-width="1px" opacity="0.25"></line><line x1="0" y1="44.24999999999983" x2="281.125" y2="44.24999999999983" fill="rgb(0, 0, 0)" stroke="rgb(60, 60, 60)" stroke-width="1px" opacity="0.25"></line><line x1="0" y1="22.12500000000003" x2="281.125" y2="22.12500000000003" fill="rgb(0, 0, 0)" stroke="rgb(60, 60, 60)" stroke-width="1px" opacity="0.25"></line><line x1="0" y1="0" x2="281.125" y2="0" fill="rgb(0, 0, 0)" stroke="rgb(60, 60, 60)" stroke-width="1px" opacity="0.25"></line></g></g></g><g><g><line x1="0" y1="2101.875000000001" x2="281.125" y2="2101.875000000001" fill="rgb(0, 0, 0)" stroke="rgb(153, 153, 153)" stroke-width="1.5px"></line></g></g><g><g><line x1="35.140625" y1="0" x2="35.140625" y2="177" fill="rgb(0, 0, 0)" stroke="rgb(153, 153, 153)" stroke-width="1.5px"></line></g></g><g><g><g><g><g><path stroke="rgb(255, 112, 67)" stroke-width="2px" d="M42.871562499999996,184.63580774980625L43.574374999999996,163.8602182103922L44.277187500000004,150.23837274332186L44.980000000000004,152.0469306243041L45.682812500000004,139.63866719975127L46.385625000000005,145.68728076962236L47.088437500000005,147.55618769960472L47.791250000000005,147.50438743510318L48.4940625,168.5874185402892L49.196875,146.0471116115757L49.8996875,132.5232439164973L50.6025,126.16847830722374L51.3053125,124.11508658723812L52.008125,109.39397214355262L52.7109375,113.46392383144023L53.41375,110.0410743487914L54.1165625,110.3332712616611L54.819375,106.40325767231148L55.5221875,104.0452504454468L56.225,119.63840311762473L56.9278125,110.8133333215761L57.630624999999995,96.13462701617915L58.333437499999995,100.22997561016713L59.036249999999995,105.03314040167288L59.739062499999996,107.3285107376292L60.441874999999996,104.01392705547573L61.144687499999996,104.95755551991215L61.847500000000004,100.8318739962295L62.550312500000004,92.49165503052899L63.253125000000004,95.11181365383045L63.955937500000005,82.60833305074493L64.65875,81.55753047408315L65.3615625,86.20538324878686L66.064375,86.64819199308037L66.76718749999999,89.25978015954276L67.47,94.93211591917618L68.17281249999999,85.43294581557848L68.875625,96.15492244249442L69.57843749999999,83.82067405980268L70.28125,87.56326939943145L70.98406250000001,81.01163790392589L71.686875,102.29932639464104L72.38968750000001,93.37212648071554L73.0925,75.11323497340528L73.79531250000001,75.30104443815596L74.498125,77.17315730683396L75.20093750000001,78.882900757983L75.90375,79.90874682867216L76.60656250000001,78.7648272812589L77.309375,78.66495128275297L78.01218750000001,81.53745708347184L78.715,75.05019484448924L79.4178125,71.74431323104203L80.12062499999999,84.42283576186352L80.8234375,83.81918356094246L81.52624999999999,82.87051651044784L82.2290625,85.82022340991563L82.93187499999999,82.89818895994686L83.6346875,78.21258964025402L84.33749999999999,81.26604009797234L85.0403125,96.0006819315557L85.74312499999999,83.72812975333919L86.4459375,83.40235995582815L87.14874999999999,73.23675791819149L87.8515625,68.31034815549403L88.55437500000001,64.18155083799111L89.2571875,68.74203395690759L89.96000000000001,76.17018241790663L90.6628125,63.032641345904594L91.36562500000001,59.25544681229955L92.0684375,66.95932300137726L92.77125000000001,65.13036293534782L93.4740625,68.13836975543684L94.17687500000001,67.01074244766811L94.8796875,61.05583174341538L95.58250000000001,65.69365104027783L96.2853125,64.3709597586881L96.988125,66.50977638955631L97.69093749999999,59.58230064866383L98.39375,58.94472233389257L99.09656249999999,57.97569961508758L99.799375,70.29685754275721L100.50218749999999,72.99769370970972L101.205,74.61819540988134L101.90781249999999,67.96625919062349L102.610625,73.94523761819859L103.31343749999999,79.29210461468124L104.01625,67.25169758373868L104.71906249999999,60.027453365173145L105.421875,57.45233402386087L106.12468750000001,53.56135949930413L106.8275,52.98620197439692L107.53031250000001,52.05463172951045L108.233125,50.909213852636L108.93593750000001,51.98139031633849L109.63875,50.27879327479067L110.34156250000001,48.670759319919824L111.044375,50.05184186676654L111.74718750000001,49.707539934990095L112.45,49.50095877592399L113.15281250000001,48.20405862059988L113.855625,46.839442797462766L114.5584375,44.84772184369612L115.26124999999999,45.998592191205375L115.9640625,48.4485415895378L116.66687499999999,49.33203549859509L117.3696875,47.516228924260076L118.07249999999999,47.013220709601114L118.7753125,45.53846432092138L119.47812499999999,45.24008621765563L120.1809375,46.82048654552341L120.88374999999999,45.42282382247478L121.5865625,44.58422618864557L122.28937499999999,44.08106760834801L122.9921875,44.952123920053936L123.69500000000001,47.82066062684683L124.3978125,40.74459395167722L125.10062500000001,40.60433680628225L125.8034375,39.93365403899256L126.50625000000001,41.87720004849834L127.2090625,40.110896254379725L127.91187500000001,42.57002110767314L128.6146875,43.4590202897069L129.3175,42.8194683390424L130.02031250000002,44.19516435847072L130.723125,40.32872338047832L131.4259375,40.941290193505125L132.12875,41.30883028132121L132.8315625,38.01044720424642L133.53437499999998,40.72327594765085L134.2371875,45.869827573347436L134.94,46.611855628996125L135.6428125,47.64354819232764L136.34562499999998,43.570705140677234L137.0484375,43.472954979566936L137.75125,41.65482494296333L138.4540625,41.15047540105391L139.15687499999999,43.78024432561986L139.8596875,41.25272282065268L140.5625,42.082165587552424L141.2653125,43.75278270757667L141.96812500000001,41.82272157976905L142.67093749999998,41.83768911307996L143.37375,40.673665423071185L144.0765625,41.73473114900341L144.77937500000002,46.476700694159035L145.48218749999998,44.04360085177149L146.185,44.34316813616584L146.8878125,41.59047710698047L147.59062500000002,45.21719680906051L148.29343749999998,46.80675290036618L148.99625,46.58753509526488L149.6990625,40.591194362670336L150.40187500000002,39.925768572825206L151.10468749999998,44.21837168856737L151.8075,45.620982098127996L152.5103125,44.11664542409537L153.21312500000002,43.21404341967545L153.91593749999998,42.08600648708122L154.61875,41.99566005746709L155.3215625,43.114403659583274L156.02437500000002,42.02622263102606L156.72718749999999,42.54626547377623L157.43,45.204194099195576L158.1328125,45.62599981456253L158.835625,47.05203470366726L159.53843750000001,44.3888012574763L160.24124999999998,41.03138124982425L160.9440625,39.01692924523286L161.646875,39.567737982415764L162.34968750000002,39.31169474467245L163.05249999999998,40.91754874196408L163.7553125,45.986391249935195L164.458125,46.0953181050065L165.16093750000002,47.920101407876246L165.86374999999998,44.90964128000172L166.5665625,43.6898409332195L167.269375,43.544436455092494L167.97218750000002,45.216620958043194L168.67499999999998,47.97935884964045L169.3778125,48.46405012471399L170.080625,45.23601051010431L170.78343750000002,45.05861393116541L171.48624999999998,47.29807890357159L172.1890625,48.64175788701522L172.891875,49.44796527708152L173.59468750000002,49.345213981178645L174.29749999999999,47.52413601381005L175.0003125,46.4314892333889L175.703125,43.42994549525636L176.4059375,42.21554773242971L177.10875000000001,43.24633626456085L177.81156249999998,42.10538219401246L178.514375,40.83428127163057L179.2171875,41.24462492819666L179.92000000000002,40.90435539219405L180.62281249999998,40.11366519053948L181.325625,40.812255279542256L182.0284375,40.64493360300142L182.73125000000002,40.54454059707675L183.43406249999998,39.89777631346911L184.136875,41.85567341318435L184.8396875,42.44393594307118L185.54250000000002,42.79689346100335L186.24531249999998,42.42219224182034L186.948125,43.956798700137284L187.6509375,43.118135385300604L188.35375000000002,42.61493739639889L189.05656249999998,41.72654287311539L189.759375,40.606977679092324L190.4621875,39.935238562678535L191.16500000000002,40.11872357288314L191.86781249999999,39.642286098952894L192.570625,41.11590355453248L193.2734375,41.41359829793794L193.97625,40.419210933985795L194.67906250000001,40.99558272560992L195.38187499999998,41.34140580058437L196.0846875,41.54889964556884L196.7875,40.50039174256432L197.49031250000002,40.4578154808147L198.19312499999998,41.60522118364952L198.8959375,40.53418466541291L199.59875,41.06456696446611L200.30156250000002,41.38279634389809L201.00437499999998,42.1602097014995L201.7071875,42.04018198611803L202.41,40.79516114689383L203.11281250000002,41.80762858329709L203.81562499999998,41.828633315196385L204.5184375,42.42771188427858L205.22125,43.373634755670054L205.92406250000002,43.354712748562775L206.62687499999998,44.516311004182995L207.3296875,44.62679422761266L208.0325,45.8660356215552L208.73531250000002,45.4366289980361L209.43812499999999,44.5925092939824L210.1409375,44.086037471550185L210.84375,44.36863010803299L211.5465625,43.951709959980434L212.24937500000001,43.115082141206585L212.95218749999998,43.19958117988466L213.655,43.250280603091426L214.3578125,43.28070025701564L215.06062500000002,43.885427779312266L215.76343749999998,43.075312832805764L216.46625,43.175719594844196L217.1690625,43.23596365206714L217.87187500000002,42.09915862651633L218.57468749999998,42.0035513411282L219.2775,41.359711239952816L219.9803125,42.146358639132444L220.68312500000002,42.618347078640056L221.38593749999998,42.31506441240222L222.08875,41.54661908271737L222.7915625,44.017930534618074L223.49437500000002,44.914241675816044L224.19718749999998,44.86555263059245L224.9,44.24986347351617L225.6028125,43.293974249328215L226.30562500000002,43.30691644475752L227.00843749999999,42.72820603207299L227.71125,42.38097978446211L228.4140625,42.759119765837966L229.116875,44.74543094449041L229.81968750000001,44.17779046185498L230.52249999999998,43.83720617227374L231.2253125,44.805807058409385L231.928125,44.8004918601485L232.63093750000002,44.21082701124985L233.33374999999998,44.44350383185292L234.0365625,42.82368273438786L234.739375,42.438265805850875L235.44218750000002,42.207015648728856L236.14499999999998,42.654741284397915L236.8478125,43.509852395741746L237.550625,43.436443332605705L238.25343750000002,44.5653493546086L238.95624999999998,45.24269296781026L239.6590625,45.06262340578908L240.361875,44.95458166857631L241.06468750000002,43.71680516636417L241.76749999999998,42.974139265037024L242.4703125,41.94206399429817L243.173125,40.73629035180198L243.87593750000002,41.77230610624184L244.57874999999999,41.220964099021074L245.2815625,42.64958608451565" style="fill: none;" fill="none"></path></g></g></g></g><g opacity="0.2"><g><g><g><path stroke="rgb(255, 112, 67)" stroke-width="2px" d="M40.060312499999995,291.1145675182343L40.763124999999995,176.75074517726898L41.465937499999995,178.2169345021248L42.168749999999996,198.74384880065918L42.871562499999996,153.29145222902295L43.574374999999996,132.76466980576512L44.277187500000004,129.83229115605351L44.980000000000004,154.75764155387876L45.682812500000004,121.03502333164211L46.385625000000005,154.75764155387876L47.088437500000005,150.35907357931134L47.791250000000005,147.42669492959973L48.4940625,200.21003812551498L49.196875,112.23788738250728L49.8996875,112.23788738250728L50.6025,116.6364553570747L51.3053125,121.03502333164211L52.008125,87.31240510940546L52.7109375,119.5688340067863L53.41375,104.9068088829517L54.1165625,110.77156618237491L54.819375,100.50824090838428L55.5221875,100.50824090838428L56.225,143.02812695503232L56.9278125,97.5757303833961L57.630624999999995,74.11656931042666L58.333437499999995,106.3729982078075L59.036249999999995,112.23788738250728L59.739062499999996,110.77156618237491L60.441874999999996,99.04205158352848L61.144687499999996,106.3729982078075L61.847500000000004,94.6433517336845L62.550312500000004,79.98132660984987L63.253125000000004,99.04205158352848L63.955937500000005,63.85311216115946L64.65875,79.98132660984987L65.3615625,93.17716240882869L66.064375,87.31240510940546L66.76718749999999,93.17716240882869L67.47,103.44061955809589L68.17281249999999,71.18419066071505L68.875625,112.23788738250728L69.57843749999999,65.31930148601526L70.28125,93.17716240882869L70.98406250000001,71.18419066071505L71.686875,134.23085913062093L72.38968750000001,79.98132660984987L73.0925,47.724897712469016L73.79531250000001,75.58275863528246L74.498125,79.98132660984987L75.20093750000001,81.44751593470568L75.90375,81.44751593470568L76.60656250000001,77.04894796013826L77.309375,78.51513728499407L78.01218750000001,85.84621578454966L78.715,65.31930148601526L79.4178125,66.78549081087107L80.12062499999999,103.44061955809589L80.8234375,82.91370525956148L81.52624999999999,81.44751593470568L82.2290625,90.24478375911708L82.93187499999999,78.51513728499407L83.6346875,71.18419066071505L84.33749999999999,85.84621578454966L85.0403125,118.1026446819305L85.74312499999999,65.31930148601526L86.4459375,82.91370525956148L87.14874999999999,57.98835486173621L87.8515625,60.92073351144785L88.55437500000001,57.98835486173621L89.2571875,75.58275863528246L89.96000000000001,87.31240510940546L90.6628125,43.3263297379016L91.36562500000001,53.58965501189223L92.0684375,78.51513728499407L92.77125000000001,62.386922836303654L93.4740625,72.65037998557085L94.17687500000001,65.31930148601526L94.8796875,52.12346568703643L95.58250000000001,72.65037998557085L96.2853125,62.386922836303654L96.988125,69.71800133585924L97.69093749999999,49.19108703732482L98.39375,57.98835486173621L99.09656249999999,56.52216553688041L99.799375,88.77859443426128L100.50218749999999,77.04894796013826L101.205,77.04894796013826L101.90781249999999,57.98835486173621L102.610625,82.91370525956148L103.31343749999999,87.31240510940546L104.01625,49.19108703732482L104.71906249999999,49.19108703732482L105.421875,53.58965501189223L106.12468750000001,47.724897712469016L106.8275,52.12346568703643L107.53031250000001,50.657276362180625L108.233125,49.19108703732482L108.93593750000001,53.58965501189223L109.63875,47.724897712469016L110.34156250000001,46.25870838761321L111.044375,52.12346568703643L111.74718750000001,49.19108703732482L112.45,49.19108703732482L113.15281250000001,46.25870838761321L113.855625,44.79251906275741L114.5584375,41.8601404130458L115.26124999999999,47.724897712469016L115.9640625,52.12346568703643L116.66687499999999,50.657276362180625L117.3696875,44.79251906275741L118.07249999999999,46.25870838761321L118.7753125,43.3263297379016L119.47812499999999,44.79251906275741L120.1809375,49.19108703732482L120.88374999999999,43.3263297379016L121.5865625,43.3263297379016L122.28937499999999,43.3263297379016L122.9921875,46.25870838761321L123.69500000000001,52.12346568703643L124.3978125,30.130493938922797L125.10062500000001,40.39395108818999L125.8034375,38.92762988805762L126.50625000000001,44.79251906275741L127.2090625,37.46144056320182L127.91187500000001,46.25870838761321L128.6146875,44.79251906275741L129.3175,41.8601404130458L130.02031250000002,46.25870838761321L130.723125,34.52906191349021L131.4259375,41.8601404130458L132.12875,41.8601404130458L132.8315625,33.062872588634406L133.53437499999998,44.79251906275741L134.2371875,53.58965501189223L134.94,47.724897712469016L135.6428125,49.19108703732482L136.34562499999998,37.46144056320182L137.0484375,43.3263297379016L137.75125,38.92762988805762L138.4540625,40.39395108818999L139.15687499999999,47.724897712469016L139.8596875,37.46144056320182L140.5625,43.3263297379016L141.2653125,46.25870838761321L141.96812500000001,38.92762988805762L142.67093749999998,41.8601404130458L143.37375,38.92762988805762L144.0765625,43.3263297379016L144.77937500000002,53.58965501189223L145.48218749999998,40.39395108818999L146.185,44.79251906275741L146.8878125,37.46144056320182L147.59062500000002,50.657276362180625L148.29343749999998,49.19108703732482L148.99625,46.25870838761321L149.6990625,31.5966832637786L150.40187500000002,38.92762988805762L151.10468749999998,50.657276362180625L151.8075,47.724897712469016L152.5103125,41.8601404130458L153.21312500000002,41.8601404130458L153.91593749999998,40.39395108818999L154.61875,41.8601404130458L155.3215625,44.79251906275741L156.02437500000002,40.39395108818999L156.72718749999999,43.3263297379016L157.43,49.19108703732482L158.1328125,46.25870838761321L158.835625,49.19108703732482L159.53843750000001,40.39395108818999L160.24124999999998,35.995251238346015L160.9440625,35.995251238346015L161.646875,40.39395108818999L162.34968750000002,38.92762988805762L163.05249999999998,43.3263297379016L163.7553125,53.58965501189223L164.458125,46.25870838761321L165.16093750000002,50.657276362180625L165.86374999999998,40.39395108818999L166.5665625,41.8601404130458L167.269375,43.3263297379016L167.97218750000002,47.724897712469016L168.67499999999998,52.12346568703643L169.3778125,49.19108703732482L170.080625,40.39395108818999L170.78343750000002,44.79251906275741L171.48624999999998,50.657276362180625L172.1890625,50.657276362180625L172.891875,50.657276362180625L173.59468750000002,49.19108703732482L174.29749999999999,44.79251906275741L175.0003125,44.79251906275741L175.703125,38.92762988805762L176.4059375,40.39395108818999L177.10875000000001,44.79251906275741L177.81156249999998,40.39395108818999L178.514375,38.92762988805762L179.2171875,41.8601404130458L179.92000000000002,40.39395108818999L180.62281249999998,38.92762988805762L181.325625,41.8601404130458L182.0284375,40.39395108818999L182.73125000000002,40.39395108818999L183.43406249999998,38.92762988805762L184.136875,44.79251906275741L184.8396875,43.3263297379016L185.54250000000002,43.3263297379016L186.24531249999998,41.8601404130458L186.948125,46.25870838761321L187.6509375,41.8601404130458L188.35375000000002,41.8601404130458L189.05656249999998,40.39395108818999L189.759375,38.92762988805762L190.4621875,38.92762988805762L191.16500000000002,40.39395108818999L191.86781249999999,38.92762988805762L192.570625,43.3263297379016L193.2734375,41.8601404130458L193.97625,38.92762988805762L194.67906250000001,41.8601404130458L195.38187499999998,41.8601404130458L196.0846875,41.8601404130458L196.7875,38.92762988805762L197.49031250000002,40.39395108818999L198.19312499999998,43.3263297379016L198.8959375,38.92762988805762L199.59875,41.8601404130458L200.30156250000002,41.8601404130458L201.00437499999998,43.3263297379016L201.7071875,41.8601404130458L202.41,38.92762988805762L203.11281250000002,43.3263297379016L203.81562499999998,41.8601404130458L204.5184375,43.3263297379016L205.22125,44.79251906275741L205.92406250000002,43.3263297379016L206.62687499999998,46.25870838761321L207.3296875,44.79251906275741L208.0325,47.724897712469016L208.73531250000002,44.79251906275741L209.43812499999999,43.3263297379016L210.1409375,43.3263297379016L210.84375,44.79251906275741L211.5465625,43.3263297379016L212.24937500000001,41.8601404130458L212.95218749999998,43.3263297379016L213.655,43.3263297379016L214.3578125,43.3263297379016L215.06062500000002,44.79251906275741L215.76343749999998,41.8601404130458L216.46625,43.3263297379016L217.1690625,43.3263297379016L217.87187500000002,40.39395108818999L218.57468749999998,41.8601404130458L219.2775,40.39395108818999L219.9803125,43.3263297379016L220.68312500000002,43.3263297379016L221.38593749999998,41.8601404130458L222.08875,40.39395108818999L222.7915625,47.724897712469016L223.49437500000002,46.25870838761321L224.19718749999998,44.79251906275741L224.9,43.3263297379016L225.6028125,41.8601404130458L226.30562500000002,43.3263297379016L227.00843749999999,41.8601404130458L227.71125,41.8601404130458L228.4140625,43.3263297379016L229.116875,47.724897712469016L229.81968750000001,43.3263297379016L230.52249999999998,43.3263297379016L231.2253125,46.25870838761321L231.928125,44.79251906275741L232.63093750000002,43.3263297379016L233.33374999999998,44.79251906275741L234.0365625,40.39395108818999L234.739375,41.8601404130458L235.44218750000002,41.8601404130458L236.14499999999998,43.3263297379016L236.8478125,44.79251906275741L237.550625,43.3263297379016L238.25343750000002,46.25870838761321L238.95624999999998,46.25870838761321L239.6590625,44.79251906275741L240.361875,44.79251906275741L241.06468750000002,41.8601404130458L241.76749999999998,41.8601404130458L242.4703125,40.39395108818999L243.173125,38.92762988805762L243.87593750000002,43.3263297379016L244.57874999999999,40.39395108818999L245.2815625,44.79251906275741" style="fill: none;" fill="none"></path></g></g></g></g></g></g><g transform="translate(48, 177)" clip-path="url(#clip_1)"><clipPath id="clip_1"><rect width="281" height="23"></rect></clipPath><g><g><line x1="0" y1="0" x2="0" y2="5" style="visibility: inherit;" fill="rgb(0, 0, 0)" stroke="rgb(204, 204, 204)" stroke-width="1px"></line><line x1="35.140625" y1="0" x2="35.140625" y2="5" style="visibility: inherit;" fill="rgb(0, 0, 0)" stroke="rgb(204, 204, 204)" stroke-width="1px"></line><line x1="70.28125" y1="0" x2="70.28125" y2="5" style="visibility: inherit;" fill="rgb(0, 0, 0)" stroke="rgb(204, 204, 204)" stroke-width="1px"></line><line x1="105.421875" y1="0" x2="105.421875" y2="5" style="visibility: inherit;" fill="rgb(0, 0, 0)" stroke="rgb(204, 204, 204)" stroke-width="1px"></line><line x1="140.5625" y1="0" x2="140.5625" y2="5" style="visibility: inherit;" fill="rgb(0, 0, 0)" stroke="rgb(204, 204, 204)" stroke-width="1px"></line><line x1="175.703125" y1="0" x2="175.703125" y2="5" style="visibility: inherit;" fill="rgb(0, 0, 0)" stroke="rgb(204, 204, 204)" stroke-width="1px"></line><line x1="210.84375" y1="0" x2="210.84375" y2="5" style="visibility: inherit;" fill="rgb(0, 0, 0)" stroke="rgb(204, 204, 204)" stroke-width="1px"></line><line x1="245.984375" y1="0" x2="245.984375" y2="5" style="visibility: inherit;" fill="rgb(0, 0, 0)" stroke="rgb(204, 204, 204)" stroke-width="1px"></line><line x1="281.125" y1="0" x2="281.125" y2="5" style="visibility: inherit;" fill="rgb(0, 0, 0)" stroke="rgb(204, 204, 204)" stroke-width="1px"></line></g><g transform="translate(0, 8)"><text x="0" y="0" dx="0em" dy="0.95em" style="text-anchor: middle; visibility: hidden; font-family: &quot;Helvetica Neue&quot;, sans-serif; font-size: 12px; font-weight: 200;" fill="rgb(50, 49, 63)" stroke="none" stroke-width="1px">-50</text><text x="35.140625" y="0" dx="0em" dy="0.95em" style="text-anchor: middle; visibility: inherit; font-family: &quot;Helvetica Neue&quot;, sans-serif; font-size: 12px; font-weight: 200;" fill="rgb(50, 49, 63)" stroke="none" stroke-width="1px">0</text><text x="70.28125" y="0" dx="0em" dy="0.95em" style="text-anchor: middle; visibility: inherit; font-family: &quot;Helvetica Neue&quot;, sans-serif; font-size: 12px; font-weight: 200;" fill="rgb(50, 49, 63)" stroke="none" stroke-width="1px">50</text><text x="105.421875" y="0" dx="0em" dy="0.95em" style="text-anchor: middle; visibility: inherit; font-family: &quot;Helvetica Neue&quot;, sans-serif; font-size: 12px; font-weight: 200;" fill="rgb(50, 49, 63)" stroke="none" stroke-width="1px">100</text><text x="140.5625" y="0" dx="0em" dy="0.95em" style="text-anchor: middle; visibility: inherit; font-family: &quot;Helvetica Neue&quot;, sans-serif; font-size: 12px; font-weight: 200;" fill="rgb(50, 49, 63)" stroke="none" stroke-width="1px">150</text><text x="175.703125" y="0" dx="0em" dy="0.95em" style="text-anchor: middle; visibility: inherit; font-family: &quot;Helvetica Neue&quot;, sans-serif; font-size: 12px; font-weight: 200;" fill="rgb(50, 49, 63)" stroke="none" stroke-width="1px">200</text><text x="210.84375" y="0" dx="0em" dy="0.95em" style="text-anchor: middle; visibility: inherit; font-family: &quot;Helvetica Neue&quot;, sans-serif; font-size: 12px; font-weight: 200;" fill="rgb(50, 49, 63)" stroke="none" stroke-width="1px">250</text><text x="245.984375" y="0" dx="0em" dy="0.95em" style="text-anchor: middle; visibility: inherit; font-family: &quot;Helvetica Neue&quot;, sans-serif; font-size: 12px; font-weight: 200;" fill="rgb(50, 49, 63)" stroke="none" stroke-width="1px">300</text><text x="281.125" y="0" dx="0em" dy="0.95em" style="text-anchor: middle; visibility: hidden; font-family: &quot;Helvetica Neue&quot;, sans-serif; font-size: 12px; font-weight: 200;" fill="rgb(50, 49, 63)" stroke="none" stroke-width="1px">350</text></g><line x1="0" y1="0" x2="281.125" y2="0" fill="rgb(0, 0, 0)" stroke="rgb(204, 204, 204)" stroke-width="1px"></line></g></g></g></g></svg>