<svg viewBox="0 0 330 200" xmlns="http://www.w3.org/2000/svg"><g><g><g><g><g><line x1="48.875" y1="177" x2="43.875" y2="177" style="visibility: inherit;" fill="rgb(0, 0, 0)" stroke="rgb(204, 204, 204)" stroke-width="1px"></line><line x1="48.875" y1="154.87499999999997" x2="43.875" y2="154.87499999999997" style="visibility: inherit;" fill="rgb(0, 0, 0)" stroke="rgb(204, 204, 204)" stroke-width="1px"></line><line x1="48.875" y1="132.75000000000006" x2="43.875" y2="132.75000000000006" style="visibility: inherit;" fill="rgb(0, 0, 0)" stroke="rgb(204, 204, 204)" stroke-width="1px"></line><line x1="48.875" y1="110.62500000000003" x2="43.875" y2="110.62500000000003" style="visibility: inherit;" fill="rgb(0, 0, 0)" stroke="rgb(204, 204, 204)" stroke-width="1px"></line><line x1="48.875" y1="88.5" x2="43.875" y2="88.5" style="visibility: inherit;" fill="rgb(0, 0, 0)" stroke="rgb(204, 204, 204)" stroke-width="1px"></line><line x1="48.875" y1="66.37499999999996" x2="43.875" y2="66.37499999999996" style="visibility: inherit;" fill="rgb(0, 0, 0)" stroke="rgb(204, 204, 204)" stroke-width="1px"></line><line x1="48.875" y1="44.24999999999994" x2="43.875" y2="44.24999999999994" style="visibility: inherit;" fill="rgb(0, 0, 0)" stroke="rgb(204, 204, 204)" stroke-width="1px"></line><line x1="48.875" y1="22.124999999999915" x2="43.875" y2="22.124999999999915" style="visibility: inherit;" fill="rgb(0, 0, 0)" stroke="rgb(204, 204, 204)" stroke-width="1px"></line><line x1="48.875" y1="0" x2="43.875" y2="0" style="visibility: inherit;" fill="rgb(0, 0, 0)" stroke="rgb(204, 204, 204)" stroke-width="1px"></line></g><g transform="translate(38.875, 0)"><text x="0" y="177" dx="0em" dy="0.3em" style="text-anchor: end; visibility: hidden; font-family: &quot;Helvetica Neue&quot;, sans-serif; font-size: 12px; font-weight: 200;" fill="rgb(50, 49, 63)" stroke="none" stroke-width="1px">0.78</text><text x="0" y="154.87499999999997" dx="0em" dy="0.3em" style="text-anchor: end; visibility: inherit; font-family: &quot;Helvetica Neue&quot;, sans-serif; font-size: 12px; font-weight: 200;" fill="rgb(50, 49, 63)" stroke="none" stroke-width="1px">0.8</text><text x="0" y="132.75000000000006" dx="0em" dy="0.3em" style="text-anchor: end; visibility: hidden; font-family: &quot;Helvetica Neue&quot;, sans-serif; font-size: 12px; font-weight: 200;" fill="rgb(50, 49, 63)" stroke="none" stroke-width="1px">0.82</text><text x="0" y="110.62500000000003" dx="0em" dy="0.3em" style="text-anchor: end; visibility: inherit; font-family: &quot;Helvetica Neue&quot;, sans-serif; font-size: 12px; font-weight: 200;" fill="rgb(50, 49, 63)" stroke="none" stroke-width="1px">0.84</text><text x="0" y="88.5" dx="0em" dy="0.3em" style="text-anchor: end; visibility: hidden; font-family: &quot;Helvetica Neue&quot;, sans-serif; font-size: 12px; font-weight: 200;" fill="rgb(50, 49, 63)" stroke="none" stroke-width="1px">0.86</text><text x="0" y="66.37499999999996" dx="0em" dy="0.3em" style="text-anchor: end; visibility: inherit; font-family: &quot;Helvetica Neue&quot;, sans-serif; font-size: 12px; font-weight: 200;" fill="rgb(50, 49, 63)" stroke="none" stroke-width="1px">0.88</text><text x="0" y="44.24999999999994" dx="0em" dy="0.3em" style="text-anchor: end; visibility: hidden; font-family: &quot;Helvetica Neue&quot;, sans-serif; font-size: 12px; font-weight: 200;" fill="rgb(50, 49, 63)" stroke="none" stroke-width="1px">0.9</text><text x="0" y="22.124999999999915" dx="0em" dy="0.3em" style="text-anchor: end; visibility: inherit; font-family: &quot;Helvetica Neue&quot;, sans-serif; font-size: 12px; font-weight: 200;" fill="rgb(50, 49, 63)" stroke="none" stroke-width="1px">0.92</text><text x="0" y="0" dx="0em" dy="0.3em" style="text-anchor: end; visibility: hidden; font-family: &quot;Helvetica Neue&quot;, sans-serif; font-size: 12px; font-weight: 200;" fill="rgb(50, 49, 63)" stroke="none" stroke-width="1px">0.94</text></g><line x1="48.875" y1="0" x2="48.875" y2="177" fill="rgb(0, 0, 0)" stroke="rgb(204, 204, 204)" stroke-width="1px"></line></g></g><g transform="translate(48, 0)" clip-path="url(#clip_0)"><clipPath id="clip_0"><rect width="281" height="177"></rect></clipPath><g><g><g><line x1="0" y1="0" x2="0" y2="177" fill="rgb(0, 0, 0)" stroke="rgb(60, 60, 60)" stroke-width="1px" opacity="0.25"></line><line x1="35.140625" y1="0" x2="35.140625" y2="177" fill="rgb(0, 0, 0)" stroke="rgb(60, 60, 60)" stroke-width="1px" opacity="0.25"></line><line x1="70.28125" y1="0" x2="70.28125" y2="177" fill="rgb(0, 0, 0)" stroke="rgb(60, 60, 60)" stroke-width="1px" opacity="0.25"></line><line x1="105.421875" y1="0" x2="105.421875" y2="177" fill="rgb(0, 0, 0)" stroke="rgb(60, 60, 60)" stroke-width="1px" opacity="0.25"></line><line x1="140.5625" y1="0" x2="140.5625" y2="177" fill="rgb(0, 0, 0)" stroke="rgb(60, 60, 60)" stroke-width="1px" opacity="0.25"></line><line x1="175.703125" y1="0" x2="175.703125" y2="177" fill="rgb(0, 0, 0)" stroke="rgb(60, 60, 60)" stroke-width="1px" opacity="0.25"></line><line x1="210.84375" y1="0" x2="210.84375" y2="177" fill="rgb(0, 0, 0)" stroke="rgb(60, 60, 60)" stroke-width="1px" opacity="0.25"></line><line x1="245.984375" y1="0" x2="245.984375" y2="177" fill="rgb(0, 0, 0)" stroke="rgb(60, 60, 60)" stroke-width="1px" opacity="0.25"></line><line x1="281.125" y1="0" x2="281.125" y2="177" fill="rgb(0, 0, 0)" stroke="rgb(60, 60, 60)" stroke-width="1px" opacity="0.25"></line></g><g><line x1="0" y1="177" x2="281.125" y2="177" fill="rgb(0, 0, 0)" stroke="rgb(60, 60, 60)" stroke-width="1px" opacity="0.25"></line><line x1="0" y1="154.87499999999997" x2="281.125" y2="154.87499999999997" fill="rgb(0, 0, 0)" stroke="rgb(60, 60, 60)" stroke-width="1px" opacity="0.25"></line><line x1="0" y1="132.75000000000006" x2="281.125" y2="132.75000000000006" fill="rgb(0, 0, 0)" stroke="rgb(60, 60, 60)" stroke-width="1px" opacity="0.25"></line><line x1="0" y1="110.62500000000003" x2="281.125" y2="110.62500000000003" fill="rgb(0, 0, 0)" stroke="rgb(60, 60, 60)" stroke-width="1px" opacity="0.25"></line><line x1="0" y1="88.5" x2="281.125" y2="88.5" fill="rgb(0, 0, 0)" stroke="rgb(60, 60, 60)" stroke-width="1px" opacity="0.25"></line><line x1="0" y1="66.37499999999996" x2="281.125" y2="66.37499999999996" fill="rgb(0, 0, 0)" stroke="rgb(60, 60, 60)" stroke-width="1px" opacity="0.25"></line><line x1="0" y1="44.24999999999994" x2="281.125" y2="44.24999999999994" fill="rgb(0, 0, 0)" stroke="rgb(60, 60, 60)" stroke-width="1px" opacity="0.25"></line><line x1="0" y1="22.124999999999915" x2="281.125" y2="22.124999999999915" fill="rgb(0, 0, 0)" stroke="rgb(60, 60, 60)" stroke-width="1px" opacity="0.25"></line><line x1="0" y1="0" x2="281.125" y2="0" fill="rgb(0, 0, 0)" stroke="rgb(60, 60, 60)" stroke-width="1px" opacity="0.25"></line></g></g></g><g><g><line x1="0" y1="1039.8750000000005" x2="281.125" y2="1039.8750000000005" fill="rgb(0, 0, 0)" stroke="rgb(153, 153, 153)" stroke-width="1.5px"></line></g></g><g><g><line x1="35.140625" y1="0" x2="35.140625" y2="177" fill="rgb(0, 0, 0)" stroke="rgb(153, 153, 153)" stroke-width="1.5px"></line></g></g><g><g><g><g><g><path stroke="rgb(255, 112, 67)" stroke-width="2px" d="M41.465937499999995,184.81521250210426L42.168749999999996,174.35024174413533L42.871562499999996,168.5522339748127L43.574374999999996,159.37887720471286L44.277187500000004,155.25044346213897L44.980000000000004,150.52887896120777L45.682812500000004,146.42778289332858L46.385625000000005,141.75451854834404L47.088437500000005,139.79729034238224L47.791250000000005,137.0608700473513L48.4940625,133.66169040186261L49.196875,131.0039117936442L49.8996875,128.04240308584238L50.6025,126.75370256257649L51.3053125,123.53967682780903L52.008125,120.4396878458617L52.7109375,118.22171086082311L53.41375,117.41162396613868L54.1165625,116.20962104382664L54.819375,114.44700032009537L55.5221875,114.26811346351457L56.225,111.36201838414088L56.9278125,113.03546127143346L57.630624999999995,112.60759872218978L58.333437499999995,111.30948849189973L59.036249999999995,108.25252968580766L59.739062499999996,109.21714345920381L60.441874999999996,108.36398358000797L61.144687499999996,107.4615522103982L61.847500000000004,105.19527026967799L62.550312500000004,104.81180015725245L63.253125000000004,102.2060113559468L63.955937500000005,101.13071397552615L64.65875,101.98255731255394L65.3615625,102.29838240504118L66.064375,102.55297109701809L66.76718749999999,100.5578189325196L67.47,99.45836808867286L68.17281249999999,98.14781396735961L68.875625,94.88816068257023L69.57843749999999,94.49445773771154L70.28125,95.2020145750721L70.98406250000001,96.21233865599211L71.686875,94.8333618162869L72.38968750000001,93.90833525769604L73.0925,93.48350659556769L73.79531250000001,91.24341173498293L74.498125,92.7632374496967L75.20093750000001,90.90889070223014L75.90375,89.89392310851946L76.60656250000001,89.93582616731008L77.309375,88.91954894354626L78.01218750000001,87.82163308555297L78.715,88.56226488050453L79.4178125,88.16050580797574L80.12062499999999,89.83952801619759L80.8234375,88.47123460885757L81.52624999999999,88.10588764498769L82.2290625,87.78903901189645L82.93187499999999,87.17587394481947L83.6346875,86.61269399503489L84.33749999999999,84.54996290790808L85.0403125,82.92178881161068L85.74312499999999,82.46560707087902L86.4459375,81.76881576416251L87.14874999999999,81.93653095863671L87.8515625,82.06970689357759L88.55437500000001,82.18215927279864L89.2571875,82.64013976929701L89.96000000000001,80.05107181118782L90.6628125,81.55676820186892L91.36562500000001,80.89807063524799L92.0684375,79.59162030926275L92.77125000000001,78.87284375018434L93.4740625,79.38535641900641L94.17687500000001,81.5478480355259L94.8796875,80.1442208407113L95.58250000000001,79.26949770556627L96.2853125,78.15887384597497L96.988125,79.83565944423688L97.69093749999999,79.14942812913895L98.39375,78.31463345285795L99.09656249999999,79.40841886637538L99.799375,78.82801652096474L100.50218749999999,79.19572599019263L101.205,76.09686633518731L101.90781249999999,74.6280859862053L102.610625,73.84445823158524L103.31343749999999,76.92156826809463L104.01625,77.62880115124838L104.71906249999999,72.35794881232523L105.421875,67.82857654242491L106.12468750000001,63.48377051799754L106.8275,63.12240636258883L107.53031250000001,60.88786976283528L108.233125,58.57082238045767L108.93593750000001,58.059278918787456L109.63875,54.30270660727291L110.34156250000001,53.77358633762036L111.044375,53.944263699564004L111.74718750000001,53.88396240050342L112.45,53.61998026832791L113.15281250000001,53.624298705249075L113.855625,52.55295026516265L114.5584375,53.27697569260201L115.26124999999999,54.32972774582623L115.9640625,54.050147191748096L116.66687499999999,53.06880752805779L117.3696875,51.99185420610846L118.07249999999999,51.18294812165702L118.7753125,50.07926767422563L119.47812499999999,51.14188252302297L120.1809375,50.31497648604089L120.88374999999999,49.46087061314209L121.5865625,48.75312617986458L122.28937499999999,47.319633654171525L122.9921875,47.95655990327256L123.69500000000001,47.26474977543867L124.3978125,48.93247544175932L125.10062500000001,48.24083454255185L125.8034375,48.737081789040104L126.50625000000001,47.277460201420496L127.2090625,49.1679030500878L127.91187500000001,49.390936973275544L128.6146875,49.78513187323914L129.3175,48.23173205944832L130.02031250000002,48.11328350241743L130.723125,49.5392361327157L131.4259375,46.6847869303314L132.12875,47.73835958519501L132.8315625,48.207795461886604L133.53437499999998,48.22908244185052L134.2371875,48.14424055011514L134.94,47.50754543656976L135.6428125,45.79121432015228L136.34562499999998,47.43001737182695L137.0484375,47.63225468984467L137.75125,47.75359708065528L138.4540625,46.817530274359825L139.15687499999999,47.36240288613348L139.8596875,46.71300103067222L140.5625,48.99196163892071L141.2653125,48.894863057609314L141.96812500000001,47.79518484978439L142.67093749999998,46.419427048615006L143.37375,47.058447314173804L144.0765625,46.72588222197939L144.77937500000002,47.958271294666844L145.48218749999998,48.01430068006124L146.185,44.533152065217536L146.8878125,45.178158254349256L147.59062500000002,47.452719176366315L148.29343749999998,46.8973517027822L148.99625,45.45764489813607L149.6990625,44.46365991737812L150.40187500000002,45.20155660215838L151.10468749999998,45.25375916900538L151.8075,45.447814800395264L152.5103125,44.1648404944263L153.21312500000002,42.45130368163126L153.91593749999998,42.59476155096249L154.61875,44.53584666284286L155.3215625,44.854333205415855L156.02437500000002,43.0277070244515L156.72718749999999,43.266045364163205L157.43,43.53920926596035L158.1328125,43.73565442529508L158.835625,43.3979188154172L159.53843750000001,43.22782426774688L160.24124999999998,42.3772434693586L160.9440625,43.07102176559033L161.646875,42.836405128312435L162.34968750000002,44.485551899714665L163.05249999999998,43.48986867430406L163.7553125,43.836237343326815L164.458125,42.3843026889416L165.16093750000002,45.02788176733577L165.86374999999998,45.70279742835942L166.5665625,44.838552788251434L167.269375,43.34368058166129L167.97218750000002,43.09764087272421L168.67499999999998,44.316851538853285L169.3778125,43.12830028679153L170.080625,41.601551829255726L170.78343750000002,41.20622547178087L171.48624999999998,42.986747763804374L172.1890625,41.321365780980415L172.891875,41.29846201381139L173.59468750000002,43.497692394501314L174.29749999999999,45.46811423793221L175.0003125,44.20956697520492L175.703125,44.13786905084174L176.4059375,43.118524873698476L177.10875000000001,42.70219927695072L177.81156249999998,41.638786212603264L178.514375,40.70784338474266L179.2171875,39.400779993295544L179.92000000000002,40.731900519704766L180.62281249999998,41.04239693675984L181.325625,40.154755284753804L182.0284375,39.947612101058525L182.73125000000002,39.30262984884993L183.43406249999998,37.77660735877282L184.136875,40.147932383012346L184.8396875,41.63579465901353L185.54250000000002,39.59956213209338L186.24531249999998,40.525727995474966L186.948125,40.07255527272207L187.6509375,38.173468976583365L188.35375000000002,40.38604935369858L189.05656249999998,41.453223033916856L189.759375,42.32135496984242L190.4621875,40.72687557012023L191.16500000000002,39.347105668009334L191.86781249999999,38.64943099976841L192.570625,38.946777075298286L193.2734375,38.92993018613316L193.97625,39.47306521288186L194.67906250000001,38.52972581715363L195.38187499999998,39.29803622800691L196.0846875,38.1318134369765L196.7875,38.21315065040088L197.49031250000002,38.97790385492988L198.19312499999998,40.99887117867681L198.8959375,38.98960669115195L199.59875,38.53254569336775L200.30156250000002,38.38849636772281L201.00437499999998,38.20442631756657L201.7071875,39.13540334651117L202.41,40.4099404403521L203.11281250000002,40.45871182018249L203.81562499999998,39.51164922555523L204.5184375,40.50552706980835L205.22125,40.61367787756993L205.92406250000002,39.21409341596646L206.62687499999998,38.244181841034134L207.3296875,38.73617439831406L208.0325,40.5283916971988L208.73531250000002,38.772412638777865L209.43812499999999,37.979173374721L210.1409375,38.2842743292739L210.84375,38.40224126549296L211.5465625,39.41680003149341L212.24937500000001,39.99298847283731L212.95218749999998,40.07835336664806L213.655,38.37220236742189L214.3578125,38.7804398958902L215.06062500000002,38.60232652574902L215.76343749999998,40.93625887245014L216.46625,40.57922196990293L217.1690625,39.74668940666939L217.87187500000002,39.149529413960096L218.57468749999998,38.82378023659092L219.2775,39.962618403404264L219.9803125,39.27908681200097L220.68312500000002,40.59379097441524L221.38593749999998,40.341220787880985L222.08875,39.050619162153026L222.7915625,37.918295936006814L223.49437500000002,40.03766461981442L224.19718749999998,38.80341819985571L224.9,37.57469444909012L225.6028125,39.08300603293358L226.30562500000002,38.62113211669302L227.00843749999999,38.01856595944028L227.71125,38.82860622209705L228.4140625,40.77913170100686L229.116875,38.69502891326809L229.81968750000001,38.583626754432146L230.52249999999998,38.80968044838261L231.2253125,39.17311401749217L231.928125,40.23731230845786L232.63093750000002,39.11846134752477L233.33374999999998,37.698626701178796L234.0365625,38.57157540568272L234.739375,40.42963230161996L235.44218750000002,40.40543330043033L236.14499999999998,40.163112546977345L236.8478125,39.88753282187983L237.550625,40.82867130731694L238.25343750000002,39.668531281323226L238.95624999999998,39.75351815376945L239.6590625,38.66545076342976L240.361875,37.622101260260024L241.06468750000002,36.73574338736256L241.76749999999998,38.254193588388574L242.4703125,39.16526370900431L243.173125,39.58171850834822L243.87593750000002,39.34344186421947L244.57874999999999,39.135382241229536L245.2815625,37.838966510427156" style="fill: none;" fill="none"></path></g></g></g></g><g opacity="0.2"><g><g><g><path stroke="rgb(255, 112, 67)" stroke-width="2px" d="M40.763124999999995,177.86730940639976L41.465937499999995,169.40586197376254L42.168749999999996,158.74770212173465L42.871562499999996,159.8867748230696L43.574374999999996,145.6487946510315L44.277187500000004,149.0658808797598L44.980000000000004,143.45208223164082L45.682812500000004,140.27903120219707L46.385625000000005,134.74659959971905L47.088437500000005,136.86194497346878L47.791250000000005,132.9566564708948L48.4940625,128.56323163211346L49.196875,127.01738964021206L49.8996875,123.60023747384548L50.6025,124.82067722082138L51.3053125,118.71867629885674L52.008125,115.78972640633583L52.7109375,114.89475484192371L53.41375,116.19649569690228L54.1165625,114.40661850571632L54.819375,111.80307085812092L55.5221875,113.9997832775116L56.225,107.0028767287731L56.9278125,115.545625269413L57.630624999999995,111.96580494940281L58.333437499999995,109.36232323944569L59.036249999999995,103.66709160804747L59.739062499999996,110.66406409442425L60.441874999999996,107.08424377441405L61.144687499999996,106.10790516436099L61.847500000000004,101.79584737122057L62.550312500000004,104.2365949898958L63.253125000000004,98.29732815921305L63.955937500000005,99.51776790618895L64.65875,103.26032231748103L65.3615625,102.77212004363535L66.064375,102.93485413491725L66.76718749999999,97.56509068608283L67.47,97.80919182300566L68.17281249999999,96.18198278546332L68.875625,89.99868075549601L69.57843749999999,93.9039033204317L70.28125,96.26334983110426L70.98406250000001,97.72782477736472L71.686875,92.76489655673502L72.38968750000001,92.52079541981219L73.0925,92.84626360237597L73.79531250000001,87.883269444108L74.498125,95.04297602176665L75.20093750000001,88.12737058103083L75.90375,88.37147171795367L76.60656250000001,89.99868075549601L77.309375,87.3951331079006L78.01218750000001,86.17475929856299L78.715,89.67321257293223L79.4178125,87.5578671991825L80.12062499999999,92.3580613285303L80.8234375,86.41879449784754L81.52624999999999,87.5578671991825L82.2290625,87.31376606225966L82.93187499999999,86.25612634420393L83.6346875,85.76792407035826L84.33749999999999,81.45586627721785L85.0403125,80.47952766716479L85.74312499999999,81.78133445978163L86.4459375,80.72362880408762L87.14874999999999,82.18810375034808L87.8515625,82.26947079598902L88.55437500000001,82.35083784162997L89.2571875,83.32711051404475L89.96000000000001,76.16746987402438L90.6628125,83.81531278789042L91.36562500000001,79.91002428531645L92.0684375,77.63194482028483L92.77125000000001,77.79467891156672L93.4740625,80.15412542223929L94.17687500000001,84.7915854603052L94.8796875,78.03878004848956L95.58250000000001,77.95741300284861L96.2853125,76.49293805658816L96.988125,82.35083784162997L97.69093749999999,78.12008115649222L98.39375,77.0624414384365L99.09656249999999,81.0490969866514L99.799375,77.95741300284861L100.50218749999999,79.74729019403456L101.205,71.44857685267924L101.90781249999999,72.4249154627323L102.610625,72.66901659965514L103.31343749999999,81.5372333228588L104.01625,78.68965047597884L104.71906249999999,64.45167030394076L105.421875,61.03451813757418L106.12468750000001,56.96656148135658L106.8275,62.58036012947558L107.53031250000001,57.53606486320491L108.233125,55.0952513068914L108.93593750000001,57.29196372628208L109.63875,48.66784814000127L110.34156250000001,52.979905933141666L111.044375,54.20027974247928L111.74718750000001,53.79351045191284L112.45,53.2240070700645L113.15281250000001,53.630776360630946L113.855625,50.94592760503288L114.5584375,54.36301383376117L115.26124999999999,55.90885582566257L115.9640625,53.630776360630946L116.66687499999999,51.59679803252216L117.3696875,50.37642422318454L118.07249999999999,49.969588994979816L118.7753125,48.42374700307843L119.47812499999999,52.73580479621883L120.1809375,49.0746174305677L120.88374999999999,48.17971180379388L121.5865625,47.691509529948206L122.28937499999999,45.16939486563203L122.9921875,48.911949276924105L123.69500000000001,46.227034583687754L124.3978125,51.43406394124027L125.10062500000001,47.203373193740816L125.8034375,49.481452658772426L126.50625000000001,45.08802781999108L127.2090625,52.0035673230886L127.91187500000001,49.72548785805698L128.6146875,50.37642422318454L129.3175,45.901632338762255L130.02031250000002,47.93561066687104L130.723125,51.678165078163104L131.4259375,42.40311312675473L132.12875,49.318718567490535L132.8315625,48.911949276924105L133.53437499999998,48.26101291179654L134.2371875,48.01697771251199L134.94,46.552502766251536L135.6428125,43.216717645525904L136.34562499999998,49.88822194933887L137.0484375,47.93561066687104L137.75125,47.93561066687104L138.4540625,45.41343006491658L139.15687499999999,48.17971180379388L139.8596875,45.738898247480364L140.5625,52.41040255129333L141.2653125,48.749215185642214L141.96812500000001,46.14566753804681L142.67093749999998,44.35579034686086L143.37375,48.01697771251199L144.0765625,46.227034583687754L144.77937500000002,49.806854903697925L145.48218749999998,48.09834475815293L146.185,39.31142914295194L146.8878125,46.14566753804681L147.59062500000002,50.86456055939193L148.29343749999998,46.06430049240586L148.99625,43.29808469116685L149.6990625,42.97268244624135L150.40187500000002,46.3084016293287L151.10468749999998,45.33206301927564L151.8075,45.738898247480364L152.5103125,42.24037903547284L153.21312500000002,39.880998462438555L153.91593749999998,42.80994835495946L154.61875,47.44747433066365L155.3215625,45.33206301927564L156.02437500000002,40.287767753005L156.72718749999999,43.62355287373063L157.43,43.94895511865613L158.1328125,44.030322164297075L158.835625,42.891315400600405L159.53843750000001,42.97268244624135L160.24124999999998,41.10137227177617L160.9440625,44.11168920993802L161.646875,42.48448017239568L162.34968750000002,46.95927205681798L163.05249999999998,41.99634383618829L163.7553125,44.35579034686086L164.458125,40.206400707364054L165.16093750000002,48.99325038492677L165.86374999999998,46.715170919895144L166.5665625,43.542185828089686L167.269375,41.10137227177617L167.97218750000002,42.728581309318514L168.67499999999998,46.14566753804681L169.3778125,41.34547340869901L170.080625,39.31142914295194L170.78343750000002,40.61323593556878L171.48624999999998,45.65753120183942L172.1890625,38.82329280674455L172.891875,41.26410636305806L173.59468750000002,46.79653796553609L174.29749999999999,48.42374700307843L175.0003125,42.32174608111379L175.703125,44.030322164297075L176.4059375,41.58950860798356L177.10875000000001,42.07771088182923L177.81156249999998,40.04366661608216L178.514375,39.31142914295194L179.2171875,37.44018490612504L179.92000000000002,42.728581309318514L180.62281249999998,41.508141562342615L181.325625,38.82329280674455L182.0284375,39.63689732551572L182.73125000000002,38.33515647053716L183.43406249999998,35.4875736236572L184.136875,43.70491991937158L184.8396875,43.867588073015185L185.54250000000002,36.54521334171292L186.24531249999998,41.91497679054734L186.948125,39.39279618859288L187.6509375,35.32483953237531L188.35375000000002,43.70491991937158L189.05656249999998,43.05398355424401L189.759375,43.62355287373063L190.4621875,38.33515647053716L191.16500000000002,37.27745081484315L191.86781249999999,37.60291899740693L192.570625,39.39279618859288L193.2734375,38.90465985238549L193.97625,40.287767753005L194.67906250000001,37.11471672356126L195.38187499999998,40.45050184428689L196.0846875,36.38247925043103L196.7875,38.33515647053716L197.49031250000002,40.12503366172311L198.19312499999998,44.030322164297075L198.8959375,35.97570995986459L199.59875,37.846954196691485L200.30156250000002,38.172422379255266L201.00437499999998,37.92832124233243L201.7071875,40.531868889927836L202.41,42.32174608111379L203.11281250000002,40.531868889927836L203.81562499999998,38.09105533361432L204.5184375,41.99634383618829L205.22125,40.77590408921239L205.92406250000002,37.11471672356126L206.62687499999998,36.78931447863576L207.3296875,39.47416323423383L208.0325,43.216717645525904L208.73531250000002,36.13844405114648L209.43812499999999,36.78931447863576L210.1409375,38.7419257611036L210.84375,38.57919166982171L211.5465625,40.93863818049428L212.24937500000001,40.857271134853335L212.95218749999998,40.206400707364054L213.655,35.8129758685827L214.3578125,39.39279618859288L215.06062500000002,38.33515647053716L215.76343749999998,44.4371573925018L216.46625,40.04366661608216L217.1690625,38.49789056181905L217.87187500000002,38.25378942489621L218.57468749999998,38.33515647053716L219.2775,41.670875653624506L219.9803125,38.25378942489621L220.68312500000002,42.56584721803662L221.38593749999998,39.9623655080795L222.08875,37.11471672356126L222.7915625,36.219811096787424L223.49437500000002,43.216717645525904L224.19718749999998,36.95204856991765L224.9,35.73160882294175L225.6028125,41.34547340869901L226.30562500000002,37.92832124233243L227.00843749999999,37.11471672356126L227.71125,40.04366661608216L228.4140625,43.70491991937158L229.116875,35.56887473165986L229.81968750000001,38.4165235161781L230.52249999999998,39.14876098930833L231.2253125,39.718264371156664L231.928125,41.8336097449064L232.63093750000002,37.44018490612504L233.33374999999998,35.56887473165986L234.0365625,39.880998462438555L234.739375,43.216717645525904L235.44218750000002,40.369134798645945L236.14499999999998,39.79963141679761L236.8478125,39.47416323423383L237.550625,42.24037903547284L238.25343750000002,37.92832124233243L238.95624999999998,39.880998462438555L239.6590625,37.03334967792031L240.361875,36.05707700550553L241.06468750000002,35.40620657801625L241.76749999999998,40.531868889927836L242.4703125,40.531868889927836L243.173125,40.206400707364054L243.87593750000002,38.98602689802644L244.57874999999999,38.82329280674455L245.2815625,35.89434291422364" style="fill: none;" fill="none"></path></g></g></g></g></g></g><g transform="translate(48, 177)" clip-path="url(#clip_1)"><clipPath id="clip_1"><rect width="281" height="23"></rect></clipPath><g><g><line x1="0" y1="0" x2="0" y2="5" style="visibility: inherit;" fill="rgb(0, 0, 0)" stroke="rgb(204, 204, 204)" stroke-width="1px"></line><line x1="35.140625" y1="0" x2="35.140625" y2="5" style="visibility: inherit;" fill="rgb(0, 0, 0)" stroke="rgb(204, 204, 204)" stroke-width="1px"></line><line x1="70.28125" y1="0" x2="70.28125" y2="5" style="visibility: inherit;" fill="rgb(0, 0, 0)" stroke="rgb(204, 204, 204)" stroke-width="1px"></line><line x1="105.421875" y1="0" x2="105.421875" y2="5" style="visibility: inherit;" fill="rgb(0, 0, 0)" stroke="rgb(204, 204, 204)" stroke-width="1px"></line><line x1="140.5625" y1="0" x2="140.5625" y2="5" style="visibility: inherit;" fill="rgb(0, 0, 0)" stroke="rgb(204, 204, 204)" stroke-width="1px"></line><line x1="175.703125" y1="0" x2="175.703125" y2="5" style="visibility: inherit;" fill="rgb(0, 0, 0)" stroke="rgb(204, 204, 204)" stroke-width="1px"></line><line x1="210.84375" y1="0" x2="210.84375" y2="5" style="visibility: inherit;" fill="rgb(0, 0, 0)" stroke="rgb(204, 204, 204)" stroke-width="1px"></line><line x1="245.984375" y1="0" x2="245.984375" y2="5" style="visibility: inherit;" fill="rgb(0, 0, 0)" stroke="rgb(204, 204, 204)" stroke-width="1px"></line><line x1="281.125" y1="0" x2="281.125" y2="5" style="visibility: inherit;" fill="rgb(0, 0, 0)" stroke="rgb(204, 204, 204)" stroke-width="1px"></line></g><g transform="translate(0, 8)"><text x="0" y="0" dx="0em" dy="0.95em" style="text-anchor: middle; visibility: hidden; font-family: &quot;Helvetica Neue&quot;, sans-serif; font-size: 12px; font-weight: 200;" fill="rgb(50, 49, 63)" stroke="none" stroke-width="1px">-50</text><text x="35.140625" y="0" dx="0em" dy="0.95em" style="text-anchor: middle; visibility: inherit; font-family: &quot;Helvetica Neue&quot;, sans-serif; font-size: 12px; font-weight: 200;" fill="rgb(50, 49, 63)" stroke="none" stroke-width="1px">0</text><text x="70.28125" y="0" dx="0em" dy="0.95em" style="text-anchor: middle; visibility: inherit; font-family: &quot;Helvetica Neue&quot;, sans-serif; font-size: 12px; font-weight: 200;" fill="rgb(50, 49, 63)" stroke="none" stroke-width="1px">50</text><text x="105.421875" y="0" dx="0em" dy="0.95em" style="text-anchor: middle; visibility: inherit; font-family: &quot;Helvetica Neue&quot;, sans-serif; font-size: 12px; font-weight: 200;" fill="rgb(50, 49, 63)" stroke="none" stroke-width="1px">100</text><text x="140.5625" y="0" dx="0em" dy="0.95em" style="text-anchor: middle; visibility: inherit; font-family: &quot;Helvetica Neue&quot;, sans-serif; font-size: 12px; font-weight: 200;" fill="rgb(50, 49, 63)" stroke="none" stroke-width="1px">150</text><text x="175.703125" y="0" dx="0em" dy="0.95em" style="text-anchor: middle; visibility: inherit; font-family: &quot;Helvetica Neue&quot;, sans-serif; font-size: 12px; font-weight: 200;" fill="rgb(50, 49, 63)" stroke="none" stroke-width="1px">200</text><text x="210.84375" y="0" dx="0em" dy="0.95em" style="text-anchor: middle; visibility: inherit; font-family: &quot;Helvetica Neue&quot;, sans-serif; font-size: 12px; font-weight: 200;" fill="rgb(50, 49, 63)" stroke="none" stroke-width="1px">250</text><text x="245.984375" y="0" dx="0em" dy="0.95em" style="text-anchor: middle; visibility: inherit; font-family: &quot;Helvetica Neue&quot;, sans-serif; font-size: 12px; font-weight: 200;" fill="rgb(50, 49, 63)" stroke="none" stroke-width="1px">300</text><text x="281.125" y="0" dx="0em" dy="0.95em" style="text-anchor: middle; visibility: hidden; font-family: &quot;Helvetica Neue&quot;, sans-serif; font-size: 12px; font-weight: 200;" fill="rgb(50, 49, 63)" stroke="none" stroke-width="1px">350</text></g><line x1="0" y1="0" x2="281.125" y2="0" fill="rgb(0, 0, 0)" stroke="rgb(204, 204, 204)" stroke-width="1px"></line></g></g></g></g></svg>