<svg viewBox="0 0 330 200" xmlns="http://www.w3.org/2000/svg"><g><g><g><g><g><line x1="48.875" y1="177" x2="43.875" y2="177" style="visibility: inherit;" fill="rgb(0, 0, 0)" stroke="rgb(204, 204, 204)" stroke-width="1px"></line><line x1="48.875" y1="154.875" x2="43.875" y2="154.875" style="visibility: inherit;" fill="rgb(0, 0, 0)" stroke="rgb(204, 204, 204)" stroke-width="1px"></line><line x1="48.875" y1="132.75" x2="43.875" y2="132.75" style="visibility: inherit;" fill="rgb(0, 0, 0)" stroke="rgb(204, 204, 204)" stroke-width="1px"></line><line x1="48.875" y1="110.62500000000001" x2="43.875" y2="110.62500000000001" style="visibility: inherit;" fill="rgb(0, 0, 0)" stroke="rgb(204, 204, 204)" stroke-width="1px"></line><line x1="48.875" y1="88.50000000000001" x2="43.875" y2="88.50000000000001" style="visibility: inherit;" fill="rgb(0, 0, 0)" stroke="rgb(204, 204, 204)" stroke-width="1px"></line><line x1="48.875" y1="66.375" x2="43.875" y2="66.375" style="visibility: inherit;" fill="rgb(0, 0, 0)" stroke="rgb(204, 204, 204)" stroke-width="1px"></line><line x1="48.875" y1="44.24999999999997" x2="43.875" y2="44.24999999999997" style="visibility: inherit;" fill="rgb(0, 0, 0)" stroke="rgb(204, 204, 204)" stroke-width="1px"></line><line x1="48.875" y1="22.12500000000003" x2="43.875" y2="22.12500000000003" style="visibility: inherit;" fill="rgb(0, 0, 0)" stroke="rgb(204, 204, 204)" stroke-width="1px"></line><line x1="48.875" y1="0" x2="43.875" y2="0" style="visibility: inherit;" fill="rgb(0, 0, 0)" stroke="rgb(204, 204, 204)" stroke-width="1px"></line></g><g transform="translate(38.875, 0)"><text x="0" y="177" dx="0em" dy="0.3em" style="text-anchor: end; visibility: hidden; font-family: &quot;Helvetica Neue&quot;, sans-serif; font-size: 12px; font-weight: 200;" fill="rgb(50, 49, 63)" stroke="none" stroke-width="1px">0.15</text><text x="0" y="154.875" dx="0em" dy="0.3em" style="text-anchor: end; visibility: inherit; font-family: &quot;Helvetica Neue&quot;, sans-serif; font-size: 12px; font-weight: 200;" fill="rgb(50, 49, 63)" stroke="none" stroke-width="1px">0.2</text><text x="0" y="132.75" dx="0em" dy="0.3em" style="text-anchor: end; visibility: hidden; font-family: &quot;Helvetica Neue&quot;, sans-serif; font-size: 12px; font-weight: 200;" fill="rgb(50, 49, 63)" stroke="none" stroke-width="1px">0.25</text><text x="0" y="110.62500000000001" dx="0em" dy="0.3em" style="text-anchor: end; visibility: inherit; font-family: &quot;Helvetica Neue&quot;, sans-serif; font-size: 12px; font-weight: 200;" fill="rgb(50, 49, 63)" stroke="none" stroke-width="1px">0.3</text><text x="0" y="88.50000000000001" dx="0em" dy="0.3em" style="text-anchor: end; visibility: hidden; font-family: &quot;Helvetica Neue&quot;, sans-serif; font-size: 12px; font-weight: 200;" fill="rgb(50, 49, 63)" stroke="none" stroke-width="1px">0.35</text><text x="0" y="66.375" dx="0em" dy="0.3em" style="text-anchor: end; visibility: inherit; font-family: &quot;Helvetica Neue&quot;, sans-serif; font-size: 12px; font-weight: 200;" fill="rgb(50, 49, 63)" stroke="none" stroke-width="1px">0.4</text><text x="0" y="44.24999999999997" dx="0em" dy="0.3em" style="text-anchor: end; visibility: hidden; font-family: &quot;Helvetica Neue&quot;, sans-serif; font-size: 12px; font-weight: 200;" fill="rgb(50, 49, 63)" stroke="none" stroke-width="1px">0.45</text><text x="0" y="22.12500000000003" dx="0em" dy="0.3em" style="text-anchor: end; visibility: inherit; font-family: &quot;Helvetica Neue&quot;, sans-serif; font-size: 12px; font-weight: 200;" fill="rgb(50, 49, 63)" stroke="none" stroke-width="1px">0.5</text><text x="0" y="0" dx="0em" dy="0.3em" style="text-anchor: end; visibility: hidden; font-family: &quot;Helvetica Neue&quot;, sans-serif; font-size: 12px; font-weight: 200;" fill="rgb(50, 49, 63)" stroke="none" stroke-width="1px">0.55</text></g><line x1="48.875" y1="0" x2="48.875" y2="177" fill="rgb(0, 0, 0)" stroke="rgb(204, 204, 204)" stroke-width="1px"></line></g></g><g transform="translate(48, 0)" clip-path="url(#clip_0)"><clipPath id="clip_0"><rect width="281" height="177"></rect></clipPath><g><g><g><line x1="0" y1="0" x2="0" y2="177" fill="rgb(0, 0, 0)" stroke="rgb(60, 60, 60)" stroke-width="1px" opacity="0.25"></line><line x1="35.140625" y1="0" x2="35.140625" y2="177" fill="rgb(0, 0, 0)" stroke="rgb(60, 60, 60)" stroke-width="1px" opacity="0.25"></line><line x1="70.28125" y1="0" x2="70.28125" y2="177" fill="rgb(0, 0, 0)" stroke="rgb(60, 60, 60)" stroke-width="1px" opacity="0.25"></line><line x1="105.421875" y1="0" x2="105.421875" y2="177" fill="rgb(0, 0, 0)" stroke="rgb(60, 60, 60)" stroke-width="1px" opacity="0.25"></line><line x1="140.5625" y1="0" x2="140.5625" y2="177" fill="rgb(0, 0, 0)" stroke="rgb(60, 60, 60)" stroke-width="1px" opacity="0.25"></line><line x1="175.703125" y1="0" x2="175.703125" y2="177" fill="rgb(0, 0, 0)" stroke="rgb(60, 60, 60)" stroke-width="1px" opacity="0.25"></line><line x1="210.84375" y1="0" x2="210.84375" y2="177" fill="rgb(0, 0, 0)" stroke="rgb(60, 60, 60)" stroke-width="1px" opacity="0.25"></line><line x1="245.984375" y1="0" x2="245.984375" y2="177" fill="rgb(0, 0, 0)" stroke="rgb(60, 60, 60)" stroke-width="1px" opacity="0.25"></line><line x1="281.125" y1="0" x2="281.125" y2="177" fill="rgb(0, 0, 0)" stroke="rgb(60, 60, 60)" stroke-width="1px" opacity="0.25"></line></g><g><line x1="0" y1="177" x2="281.125" y2="177" fill="rgb(0, 0, 0)" stroke="rgb(60, 60, 60)" stroke-width="1px" opacity="0.25"></line><line x1="0" y1="154.875" x2="281.125" y2="154.875" fill="rgb(0, 0, 0)" stroke="rgb(60, 60, 60)" stroke-width="1px" opacity="0.25"></line><line x1="0" y1="132.75" x2="281.125" y2="132.75" fill="rgb(0, 0, 0)" stroke="rgb(60, 60, 60)" stroke-width="1px" opacity="0.25"></line><line x1="0" y1="110.62500000000001" x2="281.125" y2="110.62500000000001" fill="rgb(0, 0, 0)" stroke="rgb(60, 60, 60)" stroke-width="1px" opacity="0.25"></line><line x1="0" y1="88.50000000000001" x2="281.125" y2="88.50000000000001" fill="rgb(0, 0, 0)" stroke="rgb(60, 60, 60)" stroke-width="1px" opacity="0.25"></line><line x1="0" y1="66.375" x2="281.125" y2="66.375" fill="rgb(0, 0, 0)" stroke="rgb(60, 60, 60)" stroke-width="1px" opacity="0.25"></line><line x1="0" y1="44.24999999999997" x2="281.125" y2="44.24999999999997" fill="rgb(0, 0, 0)" stroke="rgb(60, 60, 60)" stroke-width="1px" opacity="0.25"></line><line x1="0" y1="22.12500000000003" x2="281.125" y2="22.12500000000003" fill="rgb(0, 0, 0)" stroke="rgb(60, 60, 60)" stroke-width="1px" opacity="0.25"></line><line x1="0" y1="0" x2="281.125" y2="0" fill="rgb(0, 0, 0)" stroke="rgb(60, 60, 60)" stroke-width="1px" opacity="0.25"></line></g></g></g><g><g><line x1="0" y1="243.375" x2="281.125" y2="243.375" fill="rgb(0, 0, 0)" stroke="rgb(153, 153, 153)" stroke-width="1.5px"></line></g></g><g><g><line x1="35.140625" y1="0" x2="35.140625" y2="177" fill="rgb(0, 0, 0)" stroke="rgb(153, 153, 153)" stroke-width="1.5px"></line></g></g><g><g><g><g><g><path stroke="rgb(255, 112, 67)" stroke-width="2px" d="M41.465937499999995,-3.304012160062456L42.168749999999996,4.8983111992983766L42.871562499999996,9.700840930334238L43.574374999999996,18.12375613902944L44.277187500000004,22.421622570312223L44.980000000000004,26.5080342763317L45.682812500000004,31.606113855425747L46.385625000000005,35.34255918170757L47.088437500000005,35.357033872241004L47.791250000000005,38.339881641208734L48.4940625,42.68451899486152L49.196875,44.93890567579115L49.8996875,47.775180447995496L50.6025,48.93949904770221L51.3053125,52.77986942353212L52.008125,54.86996669506564L52.7109375,55.33462505290201L53.41375,56.958902184123346L54.1165625,57.17345388829868L54.819375,58.29898820922995L55.5221875,58.99753969022946L56.225,62.66107701443306L56.9278125,61.72786788178725L57.630624999999995,63.50679279139645L58.333437499999995,63.24355775419278L59.036249999999995,67.39711017777176L59.739062499999996,66.35665104132397L60.441874999999996,67.45152805732664L61.144687499999996,69.12130914048672L61.847500000000004,69.59940083679568L62.550312500000004,70.16168528189132L63.253125000000004,71.84655752549527L63.955937500000005,72.76512070205281L64.65875,71.8428477922785L65.3615625,71.42543163171376L66.064375,72.54791961485472L66.76718749999999,73.79412563078027L67.47,75.97829277781327L68.17281249999999,76.73845116180505L68.875625,78.83838733963415L69.57843749999999,80.37988166173895L70.28125,79.72826734876678L70.98406250000001,79.80903772530604L71.686875,80.1469767333135L72.38968750000001,80.0421911681332L73.0925,80.59371619252228L73.79531250000001,81.57164823906379L74.498125,81.2941707545325L75.20093750000001,82.94451412402441L75.90375,83.05582417752058L76.60656250000001,83.79171898785663L77.309375,84.20375273718496L78.01218750000001,85.33580861743728L78.715,85.31953721199297L79.4178125,86.57948535653276L80.12062499999999,84.43274225576114L80.8234375,85.30452329983349L81.52624999999999,86.2147988383176L82.2290625,86.28676704193369L82.93187499999999,87.20187564268835L83.6346875,87.82742846354917L84.33749999999999,89.07512038555787L85.0403125,91.08009019855885L85.74312499999999,89.48091235973969L86.4459375,89.00386871825778L87.14874999999999,89.24161993224097L87.8515625,90.72370674466295L88.55437500000001,91.62846736464026L89.2571875,91.50200923295688L89.96000000000001,92.59693360931796L90.6628125,92.6776407516427L91.36562500000001,92.7224200043933L92.0684375,94.44922844611742L92.77125000000001,95.32253194477045L93.4740625,94.41748717204263L94.17687500000001,93.12752929196077L94.8796875,94.44196836868119L95.58250000000001,94.86809085440154L96.2853125,96.18298129219718L96.988125,95.14439852225131L97.69093749999999,95.0606029164037L98.39375,95.84805005975015L99.09656249999999,94.5826448511329L99.799375,95.72081793017666L100.50218749999999,96.00788494746377L101.205,97.2790523874789L101.90781249999999,98.55841908502754L102.610625,98.4760132709037L103.31343749999999,97.82235946529454L104.01625,97.5578910247883L104.71906249999999,101.8588836632014L105.421875,107.40429393898489L106.12468750000001,112.03615056545163L106.8275,114.0603629831709L107.53031250000001,114.79549742843136L108.233125,117.15844925108804L108.93593750000001,117.155496340175L109.63875,119.11268435190888L110.34156250000001,119.96617626113161L111.044375,120.89633713342229L111.74718750000001,120.83214060173918L112.45,120.41881732169682L113.15281250000001,121.5332426609033L113.855625,122.9100839246174L114.5584375,121.44912851148011L115.26124999999999,121.7474532025645L115.9640625,121.86071082935273L116.66687499999999,122.69184345594371L117.3696875,124.1516775226076L118.07249999999999,124.73150741669411L118.7753125,125.5443975783162L119.47812499999999,124.77454266290502L120.1809375,125.46639068329713L120.88374999999999,125.95404144766559L121.5865625,126.10711841370244L122.28937499999999,126.89593597999561L122.9921875,126.30901259631722L123.69500000000001,127.51442163259273L124.3978125,125.5542689268022L125.10062500000001,126.12397386456902L125.8034375,126.57143947378026L126.50625000000001,127.6094796532108L127.2090625,126.38431968532286L127.91187500000001,126.09644969250132L128.6146875,126.49247411456926L129.3175,127.75544541816248L130.02031250000002,127.96469562494954L130.723125,126.9069710924876L131.4259375,127.88562993136955L132.12875,127.42246503190941L132.8315625,127.04261595342606L133.53437499999998,127.17055347760946L134.2371875,127.30940287232653L134.94,127.27769089293633L135.6428125,128.80630447597596L136.34562499999998,128.08208963353212L137.0484375,128.13345782207713L137.75125,128.9274356856779L138.4540625,129.41371832459185L139.15687499999999,128.3724820623935L139.8596875,128.62563402117135L140.5625,127.5852038959315L141.2653125,126.87378153798882L141.96812500000001,127.90409190415087L142.67093749999998,128.92371174072468L143.37375,128.72820122465637L144.0765625,129.1416718031475L144.77937500000002,129.211247775883L145.48218749999998,129.90866668458614L146.185,132.21954407355685L146.8878125,130.71167193687856L147.59062500000002,129.851712398749L148.29343749999998,129.64664055289114L148.99625,130.8243202232199L149.6990625,130.9657369651125L150.40187500000002,130.90397862778462L151.10468749999998,130.00882175079798L151.8075,130.13727577037702L152.5103125,130.8232427090829L153.21312500000002,132.00221565666348L153.91593749999998,131.507060428277L154.61875,130.80894512523133L155.3215625,130.51504095547747L156.02437500000002,130.8020818004212L156.72718749999999,131.67556891555796L157.43,131.4659625334454L158.1328125,132.4366255785771L158.835625,132.52521379505083L159.53843750000001,132.59999427029186L160.24124999999998,132.47885268228464L160.9440625,131.4493809479309L161.646875,132.44703553246455L162.34968750000002,131.43867265061735L163.05249999999998,132.3708379827511L163.7553125,131.9738699890716L164.458125,131.62581598744052L165.16093750000002,131.19723190060412L165.86374999999998,130.16726595277282L166.5665625,131.85765760013277L167.269375,133.60649590414056L167.97218750000002,133.5422757012921L168.67499999999998,133.18634616394505L169.3778125,133.78094123637476L170.080625,134.8299300690639L170.78343750000002,135.10331023455547L171.48624999999998,133.87446111274295L172.1890625,134.4772550125869L172.891875,134.06757967233372L173.59468750000002,132.49902324414083L174.29749999999999,131.6595388504018L175.0003125,132.86767106665073L175.703125,133.37895992346344L176.4059375,133.23090068368757L177.10875000000001,133.83340545218374L177.81156249999998,134.93612385524025L178.514375,136.00225329537818L179.2171875,136.45367636465804L179.92000000000002,135.66487807144983L180.62281249999998,136.11370267933765L181.325625,136.25510216335152L182.0284375,136.7283303682786L182.73125000000002,136.71917185156238L183.43406249999998,137.32111009042674L184.136875,136.83266656447182L184.8396875,135.65572223275143L185.54250000000002,136.76886211162352L186.24531249999998,136.03582442596877L186.948125,136.57099793431357L187.6509375,137.22895897076842L188.35375000000002,135.90670366672467L189.05656249999998,134.6120820080506L189.759375,133.81252096505565L190.4621875,135.3921961332059L191.16500000000002,136.57463108865596L191.86781249999999,137.18448139052498L192.570625,136.23393607330866L193.2734375,136.52262860949364L193.97625,136.1451593513222L194.67906250000001,137.07098813801596L195.38187499999998,136.4696754839992L196.0846875,137.0051360086784L196.7875,137.15875928438814L197.49031250000002,137.29234736166663L198.19312499999998,136.1543920159475L198.8959375,136.93932469905232L199.59875,137.4958555383731L200.30156250000002,137.6497405519038L201.00437499999998,137.2693171560734L201.7071875,136.1298761701566L202.41,135.41100087976346L203.11281250000002,135.65418873259955L203.81562499999998,136.86147587018925L204.5184375,136.37031416605544L205.22125,136.16594379550594L205.92406250000002,136.68797803763377L206.62687499999998,137.4182251324882L207.3296875,136.7392631966251L208.0325,135.5657487033831L208.73531250000002,136.45375967139165L209.43812499999999,136.9845116353879L210.1409375,137.61750908594425L210.84375,137.83592386782823L211.5465625,137.225311456565L212.24937500000001,136.17224570718048L212.95218749999998,136.0195671624341L213.655,137.88167115786067L214.3578125,137.52149790667528L215.06062500000002,137.53250428225417L215.76343749999998,136.63443052283418L216.46625,137.05720759637052L217.1690625,137.01286209050951L217.87187500000002,136.8473927582749L218.57468749999998,137.02392566236546L219.2775,135.71754559297972L219.9803125,136.86946462344892L220.68312500000002,136.31378541440827L221.38593749999998,136.34203264743724L222.08875,136.3178490884938L222.7915625,136.42244870292177L223.49437500000002,134.99387844399826L224.19718749999998,136.2126746922506L224.9,137.58390623329717L225.6028125,137.09888024031304L226.30562500000002,137.46721201478948L227.00843749999999,137.6357616444797L227.71125,137.41589908661666L228.4140625,136.50570114470852L229.116875,137.0764261842807L229.81968750000001,137.09139115876198L230.52249999999998,137.5262718991413L231.2253125,136.78302022492733L231.928125,136.47692031369118L232.63093750000002,136.46667635563318L233.33374999999998,137.47709055020394L234.0365625,137.36706113978613L234.739375,136.9691767225527L235.44218750000002,136.6134463268437L236.14499999999998,136.21500817644107L236.8478125,136.24609179024404L237.550625,135.6484650535852L238.25343750000002,136.2565611638707L238.95624999999998,136.63397071886553L239.6590625,138.15059712009725L240.361875,139.06138795004543L241.06468750000002,137.72807533077153L241.76749999999998,136.8062139036164L242.4703125,135.96881615113648L243.173125,136.14221982950826L243.87593750000002,136.96485305604256L244.57874999999999,136.9866861151273L245.2815625,136.827723002232" style="fill: none;" fill="none"></path></g></g></g></g><g opacity="0.2"><g><g><g><path stroke="rgb(255, 112, 67)" stroke-width="2px" d="M40.060312499999995,-2.631022542715044L40.763124999999995,2.8296161592006968L41.465937499999995,11.064567804336576L42.168749999999996,17.127401769161253L42.871562499999996,16.87850037217143L43.574374999999996,30.73062667250636L44.277187500000004,28.860002249479322L44.980000000000004,32.632848411798506L45.682812500000004,39.24963766336444L46.385625000000005,40.94564603269103L47.088437500000005,35.37874223291877L47.791250000000005,42.81369888782504L48.4940625,49.201077908277526L49.196875,48.32036206126216L49.8996875,52.02949927747251L50.6025,50.68595395982267L51.3053125,58.54037949442865L52.008125,58.005097746849074L52.7109375,56.031610608100905L53.41375,59.395313724875464L54.1165625,57.49528111517431L54.819375,59.98728865385057L55.5221875,60.04536652565004L56.225,68.1563817858696L56.9278125,60.328054368495955L57.630624999999995,66.17517994344236L58.333437499999995,62.848705217242255L59.036249999999995,73.62743863463402L59.739062499999996,64.79596236348154L60.441874999999996,69.09384356439114L61.144687499999996,71.6259807497263L61.847500000000004,70.3165383785963L62.550312500000004,71.00511194765568L63.253125000000004,74.3738658875227L63.955937500000005,74.14296546578407L64.65875,70.45943842828274L65.3615625,70.79930739104748L66.064375,74.2316515892744L66.76718749999999,75.66343465447426L67.47,79.25454349815845L68.17281249999999,77.87868873775005L68.875625,81.98829160630703L69.57843749999999,82.69212314486504L70.28125,78.75084587931633L70.98406250000001,79.9301932901144L71.686875,80.65388524532318L72.38968750000001,79.88501282036304L73.0925,81.421003729105L73.79531250000001,83.03854630887508L74.498125,80.87795452773571L75.20093750000001,85.42002917826176L75.90375,83.22278925776482L76.60656250000001,84.89556120336056L77.309375,84.82180336117744L78.01218750000001,87.03389243781567L78.715,85.29513010382652L79.4178125,88.46940757334232L80.12062499999999,81.21262760460377L80.8234375,86.612194865942L81.52624999999999,87.58021214604378L82.2290625,86.39471934735775L82.93187499999999,88.57453854382038L83.6346875,88.76575769484043L84.33749999999999,90.9466582685709L85.0403125,94.0875449180603L85.74312499999999,87.082145601511L86.4459375,88.28830325603485L87.14874999999999,89.59824675321579L87.8515625,92.94683696329594L88.55437500000001,92.98560829460621L89.2571875,91.31232203543186L89.96000000000001,94.2393201738596L90.6628125,92.79870146512985L91.36562500000001,92.78958888351917L92.0684375,97.03944110870361L92.77125000000001,96.63248719274998L93.4740625,93.0599200129509L94.17687500000001,91.192592471838L94.8796875,96.41362698376179L95.58250000000001,95.50727458298206L96.2853125,98.15531694889069L96.988125,93.58652436733246L97.69093749999999,94.93490950763226L98.39375,97.02922077476978L99.09656249999999,92.68453703820705L99.799375,97.4280775487423L100.50218749999999,96.4384854733944L101.205,99.18580354750156L101.90781249999999,100.47746913135052L102.610625,98.3524045497179L103.31343749999999,96.84187875688076L104.01625,97.16118836402893L104.71906249999999,108.310372620821L105.421875,115.72240935266018L106.12468750000001,118.98393550515175L106.8275,117.0966816097498L107.53031250000001,115.89819909632206L108.233125,120.70287698507309L108.93593750000001,117.15106697380543L109.63875,122.0484663695097L110.34156250000001,121.24641412496567L111.044375,122.29157844185829L111.74718750000001,120.73584580421448L112.45,119.79883240163326L113.15281250000001,123.20488066971302L113.855625,124.97534582018852L114.5584375,119.25769539177418L115.26124999999999,122.19494023919106L115.9640625,122.03059726953506L116.66687499999999,123.93854239583015L117.3696875,126.34142862260342L118.07249999999999,125.60125225782394L118.7753125,126.76373282074928L119.47812499999999,123.61976028978825L120.1809375,126.50416271388531L120.88374999999999,126.68551759421825L121.5865625,126.33673386275768L122.28937499999999,128.07916232943535L122.9921875,125.42862752079964L123.69500000000001,129.322535187006L124.3978125,122.61403986811638L125.10062500000001,126.97853127121925L125.8034375,127.24263788759708L126.50625000000001,129.1665399223566L127.2090625,124.54657973349094L127.91187500000001,125.664644703269L128.6146875,127.08651074767113L129.3175,129.64990237355232L130.02031250000002,128.27857093513012L130.723125,125.32038429379463L131.4259375,129.3536181896925L132.12875,126.72771768271923L132.8315625,126.47284233570099L133.53437499999998,127.36245976388454L134.2371875,127.5176769644022L134.94,127.23012292385101L135.6428125,131.0992248505354L136.34562499999998,126.99576736986637L137.0484375,128.21051010489464L137.75125,130.1184024810791L138.4540625,130.1431422829628L139.15687499999999,126.810627669096L139.8596875,129.0053619593382L140.5625,126.02455870807171L141.2653125,125.80664800107479L141.96812500000001,129.44955745339394L142.67093749999998,130.45314149558544L143.37375,128.4349354505539L144.0765625,129.76187767088413L144.77937500000002,129.3156117349863L145.48218749999998,130.9547950476408L146.185,135.68586015701294L146.8878125,128.44986373186111L147.59062500000002,128.56177309155464L148.29343749999998,129.33903278410435L148.99625,132.59083972871304L149.6990625,131.17786207795143L150.40187500000002,130.8113411217928L151.10468749999998,128.666086435318L151.8075,130.32995679974556L152.5103125,131.85219311714172L153.21312500000002,133.7706750780344L153.91593749999998,130.76432758569717L154.61875,129.76177217066288L155.3215625,130.07418470084667L156.02437500000002,131.23264306783676L156.72718749999999,132.98579958826303L157.43,131.1515529602766L158.1328125,133.89262014627457L158.835625,132.65809611976147L159.53843750000001,132.71216498315334L160.24124999999998,132.2971403002739L160.9440625,129.90517334640026L161.646875,133.94351740926504L162.34968750000002,129.92612832784653L163.05249999999998,133.7690859809518L163.7553125,131.37841799855232L164.458125,131.10373498499393L165.16093750000002,130.5543557703495L165.86374999999998,128.6223170310259L166.5665625,134.39324507117271L167.269375,136.22975336015224L167.97218750000002,133.4459453970194L168.67499999999998,132.65245185792446L169.3778125,134.67283384501934L170.080625,136.4034133180976L170.78343750000002,135.51338048279285L171.48624999999998,132.03118743002415L172.1890625,135.38144586235285L172.891875,133.45306666195393L173.59468750000002,130.14618860185146L174.29749999999999,130.40031225979328L175.0003125,134.6798693910241L175.703125,134.14589320868254L176.4059375,133.00881182402372L177.10875000000001,134.73716260492802L177.81156249999998,136.59020145982504L178.514375,137.601447455585L179.2171875,137.13081096857786L179.92000000000002,134.48168063163757L180.62281249999998,136.78693959116936L181.325625,136.46720138937235L182.0284375,137.4381726756692L182.73125000000002,136.70543407648802L183.43406249999998,138.22401744872332L184.136875,136.1000012755394L184.8396875,133.89030573517084L185.54250000000002,138.43857192993164L186.24531249999998,134.9362678974867L186.948125,137.37375819683075L187.6509375,138.2159005254507L188.35375000000002,133.92332071065903L189.05656249999998,132.67014952003956L189.759375,132.61317940056324L190.4621875,137.7617088854313L191.16500000000002,138.34828352183104L191.86781249999999,138.09925684332848L192.570625,134.8081180974841L193.2734375,136.95566741377115L193.97625,135.57895546406507L194.67906250000001,138.45973131805658L195.38187499999998,135.56770650297403L196.0846875,137.8083267956972L196.7875,137.38919419795275L197.49031250000002,137.49272947758436L198.19312499999998,134.4474589973688L198.8959375,138.11672372370958L199.59875,138.33065179735422L200.30156250000002,137.88056807219982L201.00437499999998,136.69868206232786L201.7071875,134.42071469128132L202.41,134.3326879441738L203.11281250000002,136.0189705118537L203.81562499999998,138.67240657657385L204.5184375,135.6335716098547L205.22125,135.85938823968172L205.92406250000002,137.4710294008255L206.62687499999998,138.51359577476978L207.3296875,135.72082029283047L208.0325,133.80547696352005L208.73531250000002,137.7857761234045L209.43812499999999,137.78063958138227L210.1409375,138.56700526177883L210.84375,138.16354604065418L211.5465625,136.30939283967018L212.24937500000001,134.59264708310366L212.95218749999998,135.7905493453145L213.655,140.6748271510005L214.3578125,136.9812380298972L215.06062500000002,137.54901384562254L215.76343749999998,135.28731988370419L216.46625,137.69137320667505L217.1690625,136.94634383171797L217.87187500000002,136.59918875992298L218.57468749999998,137.28872501850128L219.2775,133.75797548890114L219.9803125,138.59734316915274L220.68312500000002,135.48026660084724L221.38593749999998,136.38440349698067L222.08875,136.28157375007868L222.7915625,136.5793481245637L223.49437500000002,132.85102305561304L224.19718749999998,138.04086906462908L224.9,139.64075354486704L225.6028125,136.37134125083685L226.30562500000002,138.01970967650414L227.00843749999999,137.888586089015L227.71125,137.08610524982214L228.4140625,135.14040423184633L229.116875,137.932513743639L229.81968750000001,137.11383862048388L230.52249999999998,138.1785930097103L231.2253125,135.66814271360636L231.928125,136.01777044683695L232.63093750000002,136.4513104185462L233.33374999999998,138.9927118420601L234.0365625,137.20201702415943L234.739375,136.37235009670258L235.44218750000002,136.07985073328018L236.14499999999998,135.61735095083714L236.8478125,136.29271721094847L237.550625,134.75202494859695L238.25343750000002,137.16870532929897L238.95624999999998,137.20008505135775L239.6590625,140.4255367219448L240.361875,140.42757419496775L241.06468750000002,135.7281064018607L241.76749999999998,135.42342176288366L242.4703125,134.7127195224166L243.173125,136.40232534706593L243.87593750000002,138.19880289584398L244.57874999999999,137.01943570375443L245.2815625,136.58927833288908" style="fill: none;" fill="none"></path></g></g></g></g></g></g><g transform="translate(48, 177)" clip-path="url(#clip_1)"><clipPath id="clip_1"><rect width="281" height="23"></rect></clipPath><g><g><line x1="0" y1="0" x2="0" y2="5" style="visibility: inherit;" fill="rgb(0, 0, 0)" stroke="rgb(204, 204, 204)" stroke-width="1px"></line><line x1="35.140625" y1="0" x2="35.140625" y2="5" style="visibility: inherit;" fill="rgb(0, 0, 0)" stroke="rgb(204, 204, 204)" stroke-width="1px"></line><line x1="70.28125" y1="0" x2="70.28125" y2="5" style="visibility: inherit;" fill="rgb(0, 0, 0)" stroke="rgb(204, 204, 204)" stroke-width="1px"></line><line x1="105.421875" y1="0" x2="105.421875" y2="5" style="visibility: inherit;" fill="rgb(0, 0, 0)" stroke="rgb(204, 204, 204)" stroke-width="1px"></line><line x1="140.5625" y1="0" x2="140.5625" y2="5" style="visibility: inherit;" fill="rgb(0, 0, 0)" stroke="rgb(204, 204, 204)" stroke-width="1px"></line><line x1="175.703125" y1="0" x2="175.703125" y2="5" style="visibility: inherit;" fill="rgb(0, 0, 0)" stroke="rgb(204, 204, 204)" stroke-width="1px"></line><line x1="210.84375" y1="0" x2="210.84375" y2="5" style="visibility: inherit;" fill="rgb(0, 0, 0)" stroke="rgb(204, 204, 204)" stroke-width="1px"></line><line x1="245.984375" y1="0" x2="245.984375" y2="5" style="visibility: inherit;" fill="rgb(0, 0, 0)" stroke="rgb(204, 204, 204)" stroke-width="1px"></line><line x1="281.125" y1="0" x2="281.125" y2="5" style="visibility: inherit;" fill="rgb(0, 0, 0)" stroke="rgb(204, 204, 204)" stroke-width="1px"></line></g><g transform="translate(0, 8)"><text x="0" y="0" dx="0em" dy="0.95em" style="text-anchor: middle; visibility: hidden; font-family: &quot;Helvetica Neue&quot;, sans-serif; font-size: 12px; font-weight: 200;" fill="rgb(50, 49, 63)" stroke="none" stroke-width="1px">-50</text><text x="35.140625" y="0" dx="0em" dy="0.95em" style="text-anchor: middle; visibility: inherit; font-family: &quot;Helvetica Neue&quot;, sans-serif; font-size: 12px; font-weight: 200;" fill="rgb(50, 49, 63)" stroke="none" stroke-width="1px">0</text><text x="70.28125" y="0" dx="0em" dy="0.95em" style="text-anchor: middle; visibility: inherit; font-family: &quot;Helvetica Neue&quot;, sans-serif; font-size: 12px; font-weight: 200;" fill="rgb(50, 49, 63)" stroke="none" stroke-width="1px">50</text><text x="105.421875" y="0" dx="0em" dy="0.95em" style="text-anchor: middle; visibility: inherit; font-family: &quot;Helvetica Neue&quot;, sans-serif; font-size: 12px; font-weight: 200;" fill="rgb(50, 49, 63)" stroke="none" stroke-width="1px">100</text><text x="140.5625" y="0" dx="0em" dy="0.95em" style="text-anchor: middle; visibility: inherit; font-family: &quot;Helvetica Neue&quot;, sans-serif; font-size: 12px; font-weight: 200;" fill="rgb(50, 49, 63)" stroke="none" stroke-width="1px">150</text><text x="175.703125" y="0" dx="0em" dy="0.95em" style="text-anchor: middle; visibility: inherit; font-family: &quot;Helvetica Neue&quot;, sans-serif; font-size: 12px; font-weight: 200;" fill="rgb(50, 49, 63)" stroke="none" stroke-width="1px">200</text><text x="210.84375" y="0" dx="0em" dy="0.95em" style="text-anchor: middle; visibility: inherit; font-family: &quot;Helvetica Neue&quot;, sans-serif; font-size: 12px; font-weight: 200;" fill="rgb(50, 49, 63)" stroke="none" stroke-width="1px">250</text><text x="245.984375" y="0" dx="0em" dy="0.95em" style="text-anchor: middle; visibility: inherit; font-family: &quot;Helvetica Neue&quot;, sans-serif; font-size: 12px; font-weight: 200;" fill="rgb(50, 49, 63)" stroke="none" stroke-width="1px">300</text><text x="281.125" y="0" dx="0em" dy="0.95em" style="text-anchor: middle; visibility: hidden; font-family: &quot;Helvetica Neue&quot;, sans-serif; font-size: 12px; font-weight: 200;" fill="rgb(50, 49, 63)" stroke="none" stroke-width="1px">350</text></g><line x1="0" y1="0" x2="281.125" y2="0" fill="rgb(0, 0, 0)" stroke="rgb(204, 204, 204)" stroke-width="1px"></line></g></g></g></g></svg>