<svg viewBox="0 0 330 200" xmlns="http://www.w3.org/2000/svg"><g><g><g><g><g><line x1="48.875" y1="177" x2="43.875" y2="177" style="visibility: inherit;" fill="rgb(0, 0, 0)" stroke="rgb(204, 204, 204)" stroke-width="1px"></line><line x1="48.875" y1="157.33333333333334" x2="43.875" y2="157.33333333333334" style="visibility: inherit;" fill="rgb(0, 0, 0)" stroke="rgb(204, 204, 204)" stroke-width="1px"></line><line x1="48.875" y1="137.66666666666666" x2="43.875" y2="137.66666666666666" style="visibility: inherit;" fill="rgb(0, 0, 0)" stroke="rgb(204, 204, 204)" stroke-width="1px"></line><line x1="48.875" y1="118.00000000000001" x2="43.875" y2="118.00000000000001" style="visibility: inherit;" fill="rgb(0, 0, 0)" stroke="rgb(204, 204, 204)" stroke-width="1px"></line><line x1="48.875" y1="98.33333333333336" x2="43.875" y2="98.33333333333336" style="visibility: inherit;" fill="rgb(0, 0, 0)" stroke="rgb(204, 204, 204)" stroke-width="1px"></line><line x1="48.875" y1="78.66666666666669" x2="43.875" y2="78.66666666666669" style="visibility: inherit;" fill="rgb(0, 0, 0)" stroke="rgb(204, 204, 204)" stroke-width="1px"></line><line x1="48.875" y1="58.999999999999986" x2="43.875" y2="58.999999999999986" style="visibility: inherit;" fill="rgb(0, 0, 0)" stroke="rgb(204, 204, 204)" stroke-width="1px"></line><line x1="48.875" y1="39.33333333333337" x2="43.875" y2="39.33333333333337" style="visibility: inherit;" fill="rgb(0, 0, 0)" stroke="rgb(204, 204, 204)" stroke-width="1px"></line><line x1="48.875" y1="19.666666666666686" x2="43.875" y2="19.666666666666686" style="visibility: inherit;" fill="rgb(0, 0, 0)" stroke="rgb(204, 204, 204)" stroke-width="1px"></line><line x1="48.875" y1="0" x2="43.875" y2="0" style="visibility: inherit;" fill="rgb(0, 0, 0)" stroke="rgb(204, 204, 204)" stroke-width="1px"></line></g><g transform="translate(38.875, 0)"><text x="0" y="177" dx="0em" dy="0.3em" style="text-anchor: end; visibility: hidden; font-family: &quot;Helvetica Neue&quot;, sans-serif; font-size: 12px; font-weight: 200;" fill="rgb(50, 49, 63)" stroke="none" stroke-width="1px">0.16</text><text x="0" y="157.33333333333334" dx="0em" dy="0.3em" style="text-anchor: end; visibility: inherit; font-family: &quot;Helvetica Neue&quot;, sans-serif; font-size: 12px; font-weight: 200;" fill="rgb(50, 49, 63)" stroke="none" stroke-width="1px">0.18</text><text x="0" y="137.66666666666666" dx="0em" dy="0.3em" style="text-anchor: end; visibility: hidden; font-family: &quot;Helvetica Neue&quot;, sans-serif; font-size: 12px; font-weight: 200;" fill="rgb(50, 49, 63)" stroke="none" stroke-width="1px">0.2</text><text x="0" y="118.00000000000001" dx="0em" dy="0.3em" style="text-anchor: end; visibility: inherit; font-family: &quot;Helvetica Neue&quot;, sans-serif; font-size: 12px; font-weight: 200;" fill="rgb(50, 49, 63)" stroke="none" stroke-width="1px">0.22</text><text x="0" y="98.33333333333336" dx="0em" dy="0.3em" style="text-anchor: end; visibility: hidden; font-family: &quot;Helvetica Neue&quot;, sans-serif; font-size: 12px; font-weight: 200;" fill="rgb(50, 49, 63)" stroke="none" stroke-width="1px">0.24</text><text x="0" y="78.66666666666669" dx="0em" dy="0.3em" style="text-anchor: end; visibility: inherit; font-family: &quot;Helvetica Neue&quot;, sans-serif; font-size: 12px; font-weight: 200;" fill="rgb(50, 49, 63)" stroke="none" stroke-width="1px">0.26</text><text x="0" y="58.999999999999986" dx="0em" dy="0.3em" style="text-anchor: end; visibility: hidden; font-family: &quot;Helvetica Neue&quot;, sans-serif; font-size: 12px; font-weight: 200;" fill="rgb(50, 49, 63)" stroke="none" stroke-width="1px">0.28</text><text x="0" y="39.33333333333337" dx="0em" dy="0.3em" style="text-anchor: end; visibility: inherit; font-family: &quot;Helvetica Neue&quot;, sans-serif; font-size: 12px; font-weight: 200;" fill="rgb(50, 49, 63)" stroke="none" stroke-width="1px">0.3</text><text x="0" y="19.666666666666686" dx="0em" dy="0.3em" style="text-anchor: end; visibility: hidden; font-family: &quot;Helvetica Neue&quot;, sans-serif; font-size: 12px; font-weight: 200;" fill="rgb(50, 49, 63)" stroke="none" stroke-width="1px">0.32</text><text x="0" y="0" dx="0em" dy="0.3em" style="text-anchor: end; visibility: hidden; font-family: &quot;Helvetica Neue&quot;, sans-serif; font-size: 12px; font-weight: 200;" fill="rgb(50, 49, 63)" stroke="none" stroke-width="1px">0.34</text></g><line x1="48.875" y1="0" x2="48.875" y2="177" fill="rgb(0, 0, 0)" stroke="rgb(204, 204, 204)" stroke-width="1px"></line></g></g><g transform="translate(48, 0)" clip-path="url(#clip_0)"><clipPath id="clip_0"><rect width="281" height="177"></rect></clipPath><g><g><g><line x1="0" y1="0" x2="0" y2="177" fill="rgb(0, 0, 0)" stroke="rgb(60, 60, 60)" stroke-width="1px" opacity="0.25"></line><line x1="35.140625" y1="0" x2="35.140625" y2="177" fill="rgb(0, 0, 0)" stroke="rgb(60, 60, 60)" stroke-width="1px" opacity="0.25"></line><line x1="70.28125" y1="0" x2="70.28125" y2="177" fill="rgb(0, 0, 0)" stroke="rgb(60, 60, 60)" stroke-width="1px" opacity="0.25"></line><line x1="105.421875" y1="0" x2="105.421875" y2="177" fill="rgb(0, 0, 0)" stroke="rgb(60, 60, 60)" stroke-width="1px" opacity="0.25"></line><line x1="140.5625" y1="0" x2="140.5625" y2="177" fill="rgb(0, 0, 0)" stroke="rgb(60, 60, 60)" stroke-width="1px" opacity="0.25"></line><line x1="175.703125" y1="0" x2="175.703125" y2="177" fill="rgb(0, 0, 0)" stroke="rgb(60, 60, 60)" stroke-width="1px" opacity="0.25"></line><line x1="210.84375" y1="0" x2="210.84375" y2="177" fill="rgb(0, 0, 0)" stroke="rgb(60, 60, 60)" stroke-width="1px" opacity="0.25"></line><line x1="245.984375" y1="0" x2="245.984375" y2="177" fill="rgb(0, 0, 0)" stroke="rgb(60, 60, 60)" stroke-width="1px" opacity="0.25"></line><line x1="281.125" y1="0" x2="281.125" y2="177" fill="rgb(0, 0, 0)" stroke="rgb(60, 60, 60)" stroke-width="1px" opacity="0.25"></line></g><g><line x1="0" y1="177" x2="281.125" y2="177" fill="rgb(0, 0, 0)" stroke="rgb(60, 60, 60)" stroke-width="1px" opacity="0.25"></line><line x1="0" y1="157.33333333333334" x2="281.125" y2="157.33333333333334" fill="rgb(0, 0, 0)" stroke="rgb(60, 60, 60)" stroke-width="1px" opacity="0.25"></line><line x1="0" y1="137.66666666666666" x2="281.125" y2="137.66666666666666" fill="rgb(0, 0, 0)" stroke="rgb(60, 60, 60)" stroke-width="1px" opacity="0.25"></line><line x1="0" y1="118.00000000000001" x2="281.125" y2="118.00000000000001" fill="rgb(0, 0, 0)" stroke="rgb(60, 60, 60)" stroke-width="1px" opacity="0.25"></line><line x1="0" y1="98.33333333333336" x2="281.125" y2="98.33333333333336" fill="rgb(0, 0, 0)" stroke="rgb(60, 60, 60)" stroke-width="1px" opacity="0.25"></line><line x1="0" y1="78.66666666666669" x2="281.125" y2="78.66666666666669" fill="rgb(0, 0, 0)" stroke="rgb(60, 60, 60)" stroke-width="1px" opacity="0.25"></line><line x1="0" y1="58.999999999999986" x2="281.125" y2="58.999999999999986" fill="rgb(0, 0, 0)" stroke="rgb(60, 60, 60)" stroke-width="1px" opacity="0.25"></line><line x1="0" y1="39.33333333333337" x2="281.125" y2="39.33333333333337" fill="rgb(0, 0, 0)" stroke="rgb(60, 60, 60)" stroke-width="1px" opacity="0.25"></line><line x1="0" y1="19.666666666666686" x2="281.125" y2="19.666666666666686" fill="rgb(0, 0, 0)" stroke="rgb(60, 60, 60)" stroke-width="1px" opacity="0.25"></line><line x1="0" y1="0" x2="281.125" y2="0" fill="rgb(0, 0, 0)" stroke="rgb(60, 60, 60)" stroke-width="1px" opacity="0.25"></line></g></g></g><g><g><line x1="0" y1="334.3333333333333" x2="281.125" y2="334.3333333333333" fill="rgb(0, 0, 0)" stroke="rgb(153, 153, 153)" stroke-width="1.5px"></line></g></g><g><g><line x1="35.140625" y1="0" x2="35.140625" y2="177" fill="rgb(0, 0, 0)" stroke="rgb(153, 153, 153)" stroke-width="1.5px"></line></g></g><g><g><g><g><g><path stroke="rgb(255, 112, 67)" stroke-width="2px" d="M42.871562499999996,-3.008747360202392L43.574374999999996,19.416419389904803L44.277187500000004,34.966988286278166L44.980000000000004,34.96972146646701L45.682812500000004,45.95262395456234L46.385625000000005,43.629333220651034L47.088437500000005,39.399652356045834L47.791250000000005,44.519345990129835L48.4940625,19.994917117905942L49.196875,47.328658245195726L49.8996875,61.0905686292996L50.6025,65.25624459609152L51.3053125,68.24917321746737L52.008125,74.81893712082483L52.7109375,79.85904268554842L53.41375,81.17640997374853L54.1165625,76.19053643378012L54.819375,82.40871222706515L55.5221875,86.95813988425559L56.225,78.08067167531722L56.9278125,83.42035263794018L57.630624999999995,88.82377032820325L58.333437499999995,85.46798327914739L59.036249999999995,78.3778989885441L59.739062499999996,80.71499832741142L60.441874999999996,84.08140243550346L61.144687499999996,86.06406778114248L61.847500000000004,83.58838415001937L62.550312500000004,97.47542881748802L63.253125000000004,89.10955532385509L63.955937500000005,101.12349912899874L64.65875,108.398055074993L65.3615625,97.9978627018295L66.064375,100.2392969005945L66.76718749999999,99.2179808739369L67.47,91.05943446070489L68.17281249999999,93.93971980842781L68.875625,93.61375482022025L69.57843749999999,103.79606848052977L70.28125,101.0805565859256L70.98406250000001,104.77805525932067L71.686875,82.01697402119648L72.38968750000001,85.06559370112747L73.0925,97.70963421754236L73.79531250000001,101.77547511632712L74.498125,101.7405950497119L75.20093750000001,104.00968997898897L75.90375,104.01853446100078L76.60656250000001,107.0750306324201L77.309375,105.09417514062143L78.01218750000001,105.64245923791061L78.715,109.69281519512576L79.4178125,115.62116993900287L80.12062499999999,101.42057310006703L80.8234375,101.04840736266978L81.52624999999999,103.65948858664639L82.2290625,94.95352216644805L82.93187499999999,101.61781860639886L83.6346875,104.65143283556044L84.33749999999999,107.54380012164597L85.0403125,89.04508103098523L85.74312499999999,93.37443051635853L86.4459375,99.89340723693152L87.14874999999999,116.97285613500942L87.8515625,119.7636115854017L88.55437500000001,124.80437763760679L89.2571875,114.77061771688975L89.96000000000001,113.11625397605572L90.6628125,119.32940634331825L91.36562500000001,123.47640911484794L92.0684375,112.61910826213182L92.77125000000001,112.11009926148466L93.4740625,109.94083903559971L94.17687500000001,116.7565871456996L94.8796875,116.91539082406373L95.58250000000001,117.62068117148725L96.2853125,115.75482880167395L96.988125,118.52208619768757L97.69093749999999,120.97498174183767L98.39375,117.34730726285696L99.09656249999999,122.76394033315134L99.799375,117.39971574872149L100.50218749999999,105.8599624081219L101.205,105.1654295788466L101.90781249999999,107.76655543245427L102.610625,108.22775452771316L103.31343749999999,102.93186438146351L104.01625,102.28763091204436L104.71906249999999,115.36111969731972L105.421875,120.86637856353957L106.12468750000001,128.76671188547L106.8275,131.58360767845585L107.53031250000001,135.3689502427038L108.233125,136.64372377489346L108.93593750000001,137.37063712017337L109.63875,139.82750705959361L110.34156250000001,140.86650508293687L111.044375,140.71122434724873L111.74718750000001,139.03075232698228L112.45,141.04529075976436L113.15281250000001,141.2185408700877L113.855625,140.6871275760357L114.5584375,140.55892436053102L115.26124999999999,140.16558968432196L115.9640625,138.7568660025246L116.66687499999999,137.3794359273382L117.3696875,138.82900448878615L118.07249999999999,138.86090975745526L118.7753125,139.64198137766527L119.47812499999999,140.25873493818284L120.1809375,140.72384277384185L120.88374999999999,143.4010036989095L121.5865625,142.99385197584087L122.28937499999999,141.85265667214546L122.9921875,142.09944197122982L123.69500000000001,138.38845572422784L124.3978125,140.70852495561545L125.10062500000001,141.49993029036423L125.8034375,142.18463687577827L126.50625000000001,141.9596109935382L127.2090625,143.05900666408175L127.91187500000001,143.33980449413718L128.6146875,143.7496149482854L129.3175,141.1158199315783L130.02031250000002,143.48102847370606L130.723125,143.56986028134685L131.4259375,144.62645474779524L132.12875,143.26241307084513L132.8315625,144.46805669839037L133.53437499999998,144.14566607062926L134.2371875,144.7424049066598L134.94,144.81984692536363L135.6428125,142.45081423753044L136.34562499999998,142.65831217984484L137.0484375,141.4279419371692L137.75125,142.66413884893305L138.4540625,142.61925906857994L139.15687499999999,141.65853701981592L139.8596875,142.09423188538963L140.5625,140.31708561284313L141.2653125,141.98361696940447L141.96812500000001,143.5947806207843L142.67093749999998,142.62514533411508L143.37375,142.74511060602094L144.0765625,141.64718609344936L144.77937500000002,139.11397964929728L145.48218749999998,138.24068422223243L146.185,138.21797954502767L146.8878125,138.81250690299112L147.59062500000002,141.300509481894L148.29343749999998,141.17940381125632L148.99625,142.819811973707L149.6990625,144.25189944927067L150.40187500000002,142.53184149756532L151.10468749999998,142.29885954118473L151.8075,140.67342211280288L152.5103125,140.66007550641314L153.21312500000002,141.58613133480796L153.91593749999998,139.26453349223127L154.61875,136.69605615475012L155.3215625,135.3083377683455L156.02437500000002,136.1139024498638L156.72718749999999,137.1751949152893L157.43,138.45649469066933L158.1328125,139.20894546609685L158.835625,139.75897658249676L159.53843750000001,139.3734048349516L160.24124999999998,139.00066218432926L160.9440625,137.52938856079464L161.646875,138.4445826017516L162.34968750000002,137.44081196409405L163.05249999999998,136.45282905035378L163.7553125,138.02936415711935L164.458125,135.71787211203514L165.16093750000002,134.36077483636504L165.86374999999998,137.11585270648618L166.5665625,140.22406398029378L167.269375,136.46802687309932L167.97218750000002,133.13243536748143L168.67499999999998,135.37020243762524L169.3778125,135.3942857477581L170.080625,136.6821468488484L170.78343750000002,137.514031550255L171.48624999999998,137.53137802737945L172.1890625,135.7830210307717L172.891875,134.6703726160216L173.59468750000002,134.8471663102123L174.29749999999999,134.81456834701376L175.0003125,134.23077680246635L175.703125,136.03462883776388L176.4059375,136.91681200034992L177.10875000000001,137.97701073349066L177.81156249999998,137.59089730179636L178.514375,136.73789741196032L179.2171875,136.30863967894197L179.92000000000002,137.72191548759946L180.62281249999998,137.49210829584922L181.325625,137.04571202823996L182.0284375,137.2677938506771L182.73125000000002,136.72692583595327L183.43406249999998,137.77134659247366L184.136875,137.9864075165397L184.8396875,137.15747861751353L185.54250000000002,137.75450437876643L186.24531249999998,138.14619271127222L186.948125,138.85752748748365L187.6509375,137.9645909188233L188.35375000000002,138.320258958223L189.05656249999998,136.38957878534944L189.759375,136.36132421842188L190.4621875,137.27446728995028L191.16500000000002,137.04168080121624L191.86781249999999,137.69471998709648L192.570625,136.41918283521065L193.2734375,135.640403404746L193.97625,136.56815344984145L194.67906250000001,137.18317440486834L195.38187499999998,137.23828279179463L196.0846875,139.01979712964373L196.7875,138.46598338477577L197.49031250000002,138.03406190112887L198.19312499999998,137.36048655849095L198.8959375,138.1310277053201L199.59875,138.54806935400669L200.30156250000002,138.32693107690955L201.00437499999998,138.73817794581183L201.7071875,138.75792475775836L202.41,137.19551026564415L203.11281250000002,137.4712848091617L203.81562499999998,137.385319063534L204.5184375,136.937287368061L205.22125,137.41775436660558L205.92406250000002,138.09973794695284L206.62687499999998,138.1272165724231L207.3296875,136.54291372390148L208.0325,137.16407431100743L208.73531250000002,137.08526488305094L209.43812499999999,137.75559759235958L210.1409375,138.77405917702066L210.84375,137.94035162562898L211.5465625,137.07504357914988L212.24937500000001,135.85193783057252L212.95218749999998,136.22666484522335L213.655,136.19985372070974L214.3578125,136.47882185922765L215.06062500000002,136.6882621638777L215.76343749999998,137.11067502455728L216.46625,136.5579779670049L217.1690625,136.52837756030215L217.87187500000002,135.3871806269037L218.57468749999998,136.4023523651648L219.2775,136.62962080179187L219.9803125,136.8098172056985L220.68312500000002,136.5103232209869L221.38593749999998,137.00606855223504L222.08875,136.53525141757683L222.7915625,136.81738073755477L223.49437500000002,136.94114084519452L224.19718749999998,136.40687163359428L224.9,136.07298191201588L225.6028125,136.83389576164026L226.30562500000002,137.3485805544484L227.00843749999999,136.2169265758929L227.71125,136.09553802481912L228.4140625,137.58540347698306L229.116875,137.79983685105827L229.81968750000001,137.70808932993683L230.52249999999998,137.5292597521178L231.2253125,137.0120936458607L231.928125,137.72394459795748L232.63093750000002,137.02801117510677L233.33374999999998,136.76993815031298L234.0365625,136.39545459703592L234.739375,136.41153355333796L235.44218750000002,136.28985659615353L236.14499999999998,135.37991716664726L236.8478125,135.17486575167396L237.550625,134.94920663190493L238.25343750000002,135.33888576121694L238.95624999999998,136.65801504269183L239.6590625,137.54063308049209L240.361875,137.19087128127993L241.06468750000002,136.78439109495508L241.76749999999998,135.94579823596018L242.4703125,134.68641693462573L243.173125,134.52947846493907L243.87593750000002,134.22969545190605L244.57874999999999,135.18365996637982L245.2815625,135.62379414772417" style="fill: none;" fill="none"></path></g></g></g></g><g opacity="0.2"><g><g><g><path stroke="rgb(255, 112, 67)" stroke-width="2px" d="M40.763124999999995,-1.547428011894226L41.465937499999995,18.186300456523924L42.168749999999996,-28.96321370204285L42.871562499999996,33.880103091398894L43.574374999999996,52.98094745477043L44.277187500000004,58.26237644751869L44.980000000000004,34.97381802399954L45.682812500000004,62.41923169294995L46.385625000000005,40.14538025856021L47.088437500000005,33.056204974651365L47.791250000000005,52.198106507460295L48.4940625,-16.789484560489626L49.196875,88.3277708888054L49.8996875,81.73298136393231L50.6025,71.50467630227409L51.3053125,72.7385306954384L52.008125,84.67353628079098L52.7109375,87.41917953888577L53.41375,83.15245753526689L54.1165625,68.71173377831778L54.819375,91.73597018917403L55.5221875,93.78227885564169L56.225,64.7644723057747L56.9278125,91.42987301945688L57.630624999999995,96.9288962185383L58.333437499999995,80.43430294593178L59.036249999999995,67.74277285734814L59.739062499999996,84.22064727544786L60.441874999999996,89.13100854555766L61.144687499999996,89.03806578119597L61.847500000000004,79.87485871712369L62.550312500000004,118.30599577228229L63.253125000000004,76.56074510018033L63.955937500000005,119.14441482226056L64.65875,119.30988898873329L65.3615625,82.39757414658867L66.064375,103.60144819815955L66.76718749999999,97.68600683410965L67.47,78.82161484162015L68.17281249999999,98.26014782985052L68.875625,93.12480733791989L69.57843749999999,119.06953897078833L70.28125,97.00728874405226L70.98406250000001,110.3243032693863L71.686875,47.875352164109586L72.38968750000001,89.63852322101594L73.0925,116.67569499214491L73.79531250000001,107.87423646450044L74.498125,101.68827494978906L75.20093750000001,107.41333237290384L75.90375,104.03180118401846L76.60656250000001,111.65977488954863L77.309375,102.1228919029236L78.01218750000001,106.46488538384439L78.715,115.7683491309484L79.4178125,124.51370205481848L80.12062499999999,80.11967784166336L80.8234375,100.490158756574L81.52624999999999,107.57611042261124L82.2290625,81.89457253615063L82.93187499999999,111.614263266325L83.6346875,109.20185417930287L84.33749999999999,111.88235105077428L85.0403125,61.297002394994124L85.74312499999999,99.86845474441847L86.4459375,109.67187231779099L87.14874999999999,142.59202948212624L87.8515625,123.94974476099014L88.55437500000001,132.36552671591443L89.2571875,99.71997783581418L89.96000000000001,110.6347083648046L90.6628125,128.6491348942121L91.36562500000001,129.6969132721424L92.0684375,96.33315698305768L92.77125000000001,111.34658576051395L93.4740625,106.68694869677228L94.17687500000001,126.98020931084952L94.8796875,117.15359634160995L95.58250000000001,118.67861669262251L96.2853125,112.95605024695398L96.988125,122.67297229170799L97.69093749999999,124.65432505806288L98.39375,111.90579554438592L99.09656249999999,130.8888899385929L99.799375,109.35337887207669L100.50218749999999,88.55033239722253L101.205,104.12363033493361L101.90781249999999,111.66824421286584L102.610625,108.91955317060153L103.31343749999999,94.98802916208905L104.01625,101.32128070791563L104.71906249999999,134.9713528752327L105.421875,129.12426686286926L106.12468750000001,140.61721186836562L106.8275,135.80895136793455L107.53031250000001,141.04696408907574L108.233125,138.555884073178L108.93593750000001,138.46100713809332L109.63875,143.51281196872395L110.34156250000001,142.42500211795172L111.044375,140.47830324371657L111.74718750000001,136.51004429658255L112.45,144.06709840893745L113.15281250000001,141.4784160355727L113.855625,139.89000763495764L114.5584375,140.36661953727406L115.26124999999999,139.57558767000836L115.9640625,136.64378047982854L116.66687499999999,135.31329081455868L117.3696875,141.00335733095807L118.07249999999999,138.9087676604589L118.7753125,140.81358880798024L119.47812499999999,141.18386527895927L120.1809375,141.4215045273304L120.88374999999999,147.41674508651099L121.5865625,142.3831243912379L122.28937499999999,140.14086371660233L122.9921875,142.4696199198564L123.69500000000001,132.8219763537248L124.3978125,144.18862880269688L125.10062500000001,142.68703829248747L125.8034375,143.21169675389928L126.50625000000001,141.62207217017811L127.2090625,144.70810016989708L127.91187500000001,143.76100123922032L128.6146875,144.36433062950772L129.3175,137.16512740651768L130.02031250000002,147.02884128689766L130.723125,143.70310799280804L131.4259375,146.2113464474678L132.12875,141.21635055541992L132.8315625,146.27652213970822L133.53437499999998,143.66208012898764L134.2371875,145.63751316070557L134.94,144.9360099534194L135.6428125,138.89726520578068L136.34562499999998,142.9695590933164L137.0484375,139.58238657315573L137.75125,144.5184342165788L138.4540625,142.5519393980503L139.15687499999999,140.2174539466699L139.8596875,142.74777418375015L140.5625,137.65136620402336L141.2653125,144.4834140042464L141.96812500000001,146.011526097854L142.67093749999998,141.17069240411124L143.37375,142.92505851387978L144.0765625,140.00029932459196L144.77937500000002,135.31416998306912L145.48218749999998,136.93074108163518L146.185,138.18392252922058L146.8878125,139.70429793993634L147.59062500000002,145.03251335024834L148.29343749999998,140.99774530529976L148.99625,145.28042421738309L149.6990625,146.4000306626161L150.40187500000002,139.95175457000732L151.10468749999998,141.9493866066138L151.8075,138.2352659702301L152.5103125,140.64005559682846L153.21312500000002,142.9752150774002L153.91593749999998,135.78213672836623L154.61875,132.84334014852843L155.3215625,133.22676018873852L156.02437500000002,137.32224947214127L156.72718749999999,138.7671336134275L157.43,140.37844435373944L158.1328125,140.33762162923813L158.835625,140.58402325709662L159.53843750000001,138.79504721363386L160.24124999999998,138.44154820839566L160.9440625,135.32247812549275L161.646875,139.81737366318703L162.34968750000002,135.9351560076078L163.05249999999998,134.97085467974347L163.7553125,140.39416681726775L164.458125,132.2506340444088L165.16093750000002,132.32512892285985L165.86374999999998,141.2484695116679L166.5665625,144.88638089100522L167.269375,130.83397121230763L167.97218750000002,128.12904810905457L168.67499999999998,138.72685304284096L169.3778125,135.43041071295738L170.080625,138.61393850048384L170.78343750000002,138.76185860236487L171.48624999999998,137.55739774306616L172.1890625,133.16048553586006L172.891875,133.00139999389648L173.59468750000002,135.1123568514983L174.29749999999999,134.76567140221596L175.0003125,133.3550894856453L175.703125,138.7404068907102L176.4059375,138.24008674422902L177.10875000000001,139.56730883320174L177.81156249999998,137.0117271542549L178.514375,135.4583975772063L179.2171875,135.66475307941437L179.92000000000002,139.8418292005857L180.62281249999998,137.14739750822386L181.325625,136.376117626826L182.0284375,137.6009165843328L182.73125000000002,135.91562381386757L183.43406249999998,139.33797772725424L184.136875,138.30899890263876L184.8396875,135.9140852689743L185.54250000000002,138.6500430206458L186.24531249999998,138.73372521003088L186.948125,139.9245296518008L187.6509375,136.6251860658328L188.35375000000002,138.85376101732254L189.05656249999998,133.49355852603912L189.759375,136.31894236803055L190.4621875,138.64418189724287L191.16500000000002,136.69250106811523L191.86781249999999,138.67427876591682L192.570625,134.50587710738182L193.2734375,134.47223425904912L193.97625,137.95977851748466L194.67906250000001,138.10570583740872L195.38187499999998,137.32094537218413L196.0846875,141.6920686364174L196.7875,137.63526276747388L197.49031250000002,137.38617967565855L198.19312499999998,136.35012354453406L198.8959375,139.2868394255638L199.59875,139.17363182703656L200.30156250000002,137.9952236612638L201.00437499999998,139.35504824916524L201.7071875,138.78754497567814L202.41,134.85188852747282L203.11281250000002,137.884946624438L203.81562499999998,137.25637044509253L204.5184375,136.26523982485136L205.22125,138.1384548644225L205.92406250000002,139.12271331747374L206.62687499999998,138.1684345106284L207.3296875,134.16645945111912L208.0325,138.0958151916663L208.73531250000002,136.96705074111622L209.43812499999999,138.76109665632248L210.1409375,140.3017515540123L210.84375,136.6897902985414L211.5465625,135.7770815094312L212.24937500000001,134.01727920770645L212.95218749999998,136.7887553671996L213.655,136.15963703393936L214.3578125,136.89727406700453L215.06062500000002,137.0024226208528L215.76343749999998,137.74429431557655L216.46625,135.72893238067627L217.1690625,136.4839769502481L217.87187500000002,133.67538522680601L218.57468749999998,137.92510997255644L219.2775,136.97052345673245L219.9803125,137.08011181155842L220.68312500000002,136.06108224391937L221.38593749999998,137.74968654910725L222.08875,135.82902571558952L222.7915625,137.24057471752167L223.49437500000002,137.1267810066541L224.19718749999998,135.6054678161939L224.9,135.57214732964835L225.6028125,137.97526653607687L226.30562500000002,138.12060774366063L227.00843749999999,134.51944560805958L227.71125,135.9134551982085L228.4140625,139.82020165522894L229.116875,138.12148691217106L229.81968750000001,137.57046804825467L230.52249999999998,137.26101538538933L231.2253125,136.236344486475L231.928125,138.79172102610272L232.63093750000002,135.9841110408306L233.33374999999998,136.3828286131223L234.0365625,135.83372926712036L234.739375,136.43565198779106L235.44218750000002,136.10734116037688L236.14499999999998,134.01500802238783L236.8478125,134.867288629214L237.550625,134.61071795225143L238.25343750000002,135.92340445518494L238.95624999999998,138.63670896490416L239.6590625,138.86456013719243L240.361875,136.66622858246168L241.06468750000002,136.17467081546783L241.76749999999998,134.6879089474678L242.4703125,132.79734498262405L243.173125,134.29407076040906L243.87593750000002,133.78002093235654L244.57874999999999,136.61460673809052L245.2815625,136.28399541974068" style="fill: none;" fill="none"></path></g></g></g></g></g></g><g transform="translate(48, 177)" clip-path="url(#clip_1)"><clipPath id="clip_1"><rect width="281" height="23"></rect></clipPath><g><g><line x1="0" y1="0" x2="0" y2="5" style="visibility: inherit;" fill="rgb(0, 0, 0)" stroke="rgb(204, 204, 204)" stroke-width="1px"></line><line x1="35.140625" y1="0" x2="35.140625" y2="5" style="visibility: inherit;" fill="rgb(0, 0, 0)" stroke="rgb(204, 204, 204)" stroke-width="1px"></line><line x1="70.28125" y1="0" x2="70.28125" y2="5" style="visibility: inherit;" fill="rgb(0, 0, 0)" stroke="rgb(204, 204, 204)" stroke-width="1px"></line><line x1="105.421875" y1="0" x2="105.421875" y2="5" style="visibility: inherit;" fill="rgb(0, 0, 0)" stroke="rgb(204, 204, 204)" stroke-width="1px"></line><line x1="140.5625" y1="0" x2="140.5625" y2="5" style="visibility: inherit;" fill="rgb(0, 0, 0)" stroke="rgb(204, 204, 204)" stroke-width="1px"></line><line x1="175.703125" y1="0" x2="175.703125" y2="5" style="visibility: inherit;" fill="rgb(0, 0, 0)" stroke="rgb(204, 204, 204)" stroke-width="1px"></line><line x1="210.84375" y1="0" x2="210.84375" y2="5" style="visibility: inherit;" fill="rgb(0, 0, 0)" stroke="rgb(204, 204, 204)" stroke-width="1px"></line><line x1="245.984375" y1="0" x2="245.984375" y2="5" style="visibility: inherit;" fill="rgb(0, 0, 0)" stroke="rgb(204, 204, 204)" stroke-width="1px"></line><line x1="281.125" y1="0" x2="281.125" y2="5" style="visibility: inherit;" fill="rgb(0, 0, 0)" stroke="rgb(204, 204, 204)" stroke-width="1px"></line></g><g transform="translate(0, 8)"><text x="0" y="0" dx="0em" dy="0.95em" style="text-anchor: middle; visibility: hidden; font-family: &quot;Helvetica Neue&quot;, sans-serif; font-size: 12px; font-weight: 200;" fill="rgb(50, 49, 63)" stroke="none" stroke-width="1px">-50</text><text x="35.140625" y="0" dx="0em" dy="0.95em" style="text-anchor: middle; visibility: inherit; font-family: &quot;Helvetica Neue&quot;, sans-serif; font-size: 12px; font-weight: 200;" fill="rgb(50, 49, 63)" stroke="none" stroke-width="1px">0</text><text x="70.28125" y="0" dx="0em" dy="0.95em" style="text-anchor: middle; visibility: inherit; font-family: &quot;Helvetica Neue&quot;, sans-serif; font-size: 12px; font-weight: 200;" fill="rgb(50, 49, 63)" stroke="none" stroke-width="1px">50</text><text x="105.421875" y="0" dx="0em" dy="0.95em" style="text-anchor: middle; visibility: inherit; font-family: &quot;Helvetica Neue&quot;, sans-serif; font-size: 12px; font-weight: 200;" fill="rgb(50, 49, 63)" stroke="none" stroke-width="1px">100</text><text x="140.5625" y="0" dx="0em" dy="0.95em" style="text-anchor: middle; visibility: inherit; font-family: &quot;Helvetica Neue&quot;, sans-serif; font-size: 12px; font-weight: 200;" fill="rgb(50, 49, 63)" stroke="none" stroke-width="1px">150</text><text x="175.703125" y="0" dx="0em" dy="0.95em" style="text-anchor: middle; visibility: inherit; font-family: &quot;Helvetica Neue&quot;, sans-serif; font-size: 12px; font-weight: 200;" fill="rgb(50, 49, 63)" stroke="none" stroke-width="1px">200</text><text x="210.84375" y="0" dx="0em" dy="0.95em" style="text-anchor: middle; visibility: inherit; font-family: &quot;Helvetica Neue&quot;, sans-serif; font-size: 12px; font-weight: 200;" fill="rgb(50, 49, 63)" stroke="none" stroke-width="1px">250</text><text x="245.984375" y="0" dx="0em" dy="0.95em" style="text-anchor: middle; visibility: inherit; font-family: &quot;Helvetica Neue&quot;, sans-serif; font-size: 12px; font-weight: 200;" fill="rgb(50, 49, 63)" stroke="none" stroke-width="1px">300</text><text x="281.125" y="0" dx="0em" dy="0.95em" style="text-anchor: middle; visibility: hidden; font-family: &quot;Helvetica Neue&quot;, sans-serif; font-size: 12px; font-weight: 200;" fill="rgb(50, 49, 63)" stroke="none" stroke-width="1px">350</text></g><line x1="0" y1="0" x2="281.125" y2="0" fill="rgb(0, 0, 0)" stroke="rgb(204, 204, 204)" stroke-width="1px"></line></g></g></g></g></svg>